<svg width="22" height="19" viewBox="0 0 22 19" fill="none" xmlns="http://www.w3.org/2000/svg">
<path d="M16.9123 18.8993H4.31127C1.78704 16.9906 0.156396 13.9634 0.156396 10.5552C0.156396 4.78095 4.83734 0.1 10.6116 0.1C16.3858 0.1 21.0668 4.78095 21.0668 10.5552C21.0668 13.9632 19.4362 16.9904 16.9123 18.8993ZM11.6795 2.07714L11.5672 2.06313L11.5672 2.17637L11.5671 4.12207H9.65606L9.65597 2.17637L9.65596 2.06313L9.54359 2.07715C7.20545 2.36874 5.16095 3.60494 3.80381 5.39141L3.73517 5.48176L3.83344 5.5385L5.5181 6.51113L4.56258 8.16613L2.87642 7.19263L2.77827 7.13597L2.73426 7.24041C2.30478 8.25981 2.06743 9.37991 2.06743 10.5552C2.06743 11.7305 2.30478 12.8506 2.73426 13.87L2.77827 13.9744L2.87642 13.9177L4.56258 12.9442L5.5181 14.5992L3.83347 15.5719L3.73521 15.6287L3.80385 15.719C4.14735 16.1712 4.53486 16.5881 4.96001 16.9633L4.98837 16.9883H5.02618H16.197H16.2348L16.2632 16.9633C16.6883 16.5881 17.0758 16.1712 17.4193 15.719L17.488 15.6287L17.3897 15.5719L15.7051 14.5992L16.6606 12.9442L18.3467 13.9178L18.4449 13.9745L18.4889 13.87C18.9184 12.8506 19.1557 11.7305 19.1557 10.5552C19.1557 9.37989 18.9184 8.25978 18.4889 7.24036L18.4449 7.13592L18.3467 7.19259L16.6606 8.16613L15.7051 6.51113L17.3897 5.5385L17.488 5.48176L17.4193 5.39141C16.0622 3.60493 14.0177 2.36872 11.6795 2.07714ZM10.6982 8.49415L12.9006 4.67939L14.5556 5.63491L12.3534 9.4493L12.3245 9.49936L12.3534 9.54939C12.5246 9.84516 12.6226 10.1886 12.6226 10.5552C12.6226 11.6659 11.7222 12.5662 10.6116 12.5662C9.50092 12.5662 8.60055 11.6659 8.60055 10.5552C8.60055 9.44452 9.50092 8.54415 10.6116 8.54415H10.6693L10.6982 8.49415Z" fill="white" stroke="#7B7B7B" stroke-width="0.2"/>
</svg>
