<svg width="490" height="30" viewBox="0 0 490 30" fill="none" xmlns="http://www.w3.org/2000/svg">
<path d="M43.7845 5.83384C43.4165 5.83384 43.0635 5.68764 42.8033 5.42739C42.5431 5.16715 42.3969 4.81419 42.3969 4.44615V1.41845C42.3969 1.05042 42.5431 0.69745 42.8033 0.437207C43.0635 0.176965 43.4165 0.0307617 43.7845 0.0307617C44.1526 0.0307617 44.5055 0.176965 44.7658 0.437207C45.026 0.69745 45.1722 1.05042 45.1722 1.41845V4.44615C45.1722 4.81419 45.026 5.16715 44.7658 5.42739C44.5055 5.68764 44.1526 5.83384 43.7845 5.83384Z" fill="#FFD60B"/>
<path d="M43.7845 29.0462C43.4165 29.0462 43.0635 28.9 42.8033 28.6397C42.5431 28.3795 42.3969 28.0265 42.3969 27.6585V24.6308C42.3969 24.2628 42.5431 23.9098 42.8033 23.6495C43.0635 23.3893 43.4165 23.2431 43.7845 23.2431C44.1526 23.2431 44.5055 23.3893 44.7658 23.6495C45.026 23.9098 45.1722 24.2628 45.1722 24.6308V27.6585C45.1722 28.0265 45.026 28.3795 44.7658 28.6397C44.5055 28.9 44.1526 29.0462 43.7845 29.0462Z" fill="#FFD60B"/>
<path d="M50.9211 8.78963C50.6467 8.7896 50.3785 8.70822 50.1503 8.55577C49.9222 8.40333 49.7443 8.18667 49.6393 7.93317C49.5342 7.67968 49.5067 7.40073 49.5602 7.13159C49.6136 6.86245 49.7457 6.6152 49.9396 6.4211L52.0804 4.28027C52.3418 4.02568 52.693 3.88429 53.0578 3.88669C53.4227 3.88909 53.7719 4.0351 54.0299 4.2931C54.2879 4.55111 54.4339 4.90035 54.4363 5.26521C54.4388 5.63008 54.2974 5.98121 54.0428 6.24259L51.9019 8.38342C51.7733 8.51238 51.6204 8.61466 51.452 8.68437C51.2837 8.75408 51.1033 8.78985 50.9211 8.78963Z" fill="#FFD60B"/>
<path d="M34.5072 25.2035C34.2327 25.2035 33.9644 25.122 33.7362 24.9695C33.508 24.817 33.3302 24.6002 33.2252 24.3466C33.1202 24.093 33.0927 23.814 33.1463 23.5448C33.2 23.2756 33.3322 23.0284 33.5263 22.8343L35.6671 20.6935C35.7954 20.5619 35.9485 20.457 36.1175 20.385C36.2866 20.313 36.4683 20.2753 36.6521 20.2741C36.8359 20.2729 37.018 20.3082 37.188 20.3779C37.3581 20.4477 37.5125 20.5505 37.6425 20.6805C37.7724 20.8104 37.8753 20.9649 37.945 21.1349C38.0148 21.3049 38.0501 21.4871 38.0489 21.6709C38.0477 21.8546 38.01 22.0363 37.938 22.2054C37.866 22.3745 37.7611 22.5276 37.6295 22.6558L35.4886 24.7967C35.3599 24.9258 35.2069 25.0282 35.0385 25.098C34.8701 25.1678 34.6895 25.2037 34.5072 25.2035Z" fill="#FFD60B"/>
<path d="M56.9045 15.9262H53.8768C53.5088 15.9262 53.1558 15.78 52.8956 15.5198C52.6353 15.2595 52.4891 14.9065 52.4891 14.5385C52.4891 14.1705 52.6353 13.8175 52.8956 13.5573C53.1558 13.297 53.5088 13.1508 53.8768 13.1508H56.9045C57.2726 13.1508 57.6255 13.297 57.8858 13.5573C58.146 13.8175 58.2922 14.1705 58.2922 14.5385C58.2922 14.9065 58.146 15.2595 57.8858 15.5198C57.6255 15.78 57.2726 15.9262 56.9045 15.9262Z" fill="#FFD60B"/>
<path d="M33.6922 15.9262H30.6645C30.2965 15.9262 29.9435 15.78 29.6833 15.5198C29.4231 15.2595 29.2769 14.9065 29.2769 14.5385C29.2769 14.1705 29.4231 13.8175 29.6833 13.5573C29.9435 13.297 30.2965 13.1508 30.6645 13.1508H33.6922C34.0603 13.1508 34.4132 13.297 34.6735 13.5573C34.9337 13.8175 35.0799 14.1705 35.0799 14.5385C35.0799 14.9065 34.9337 15.2595 34.6735 15.5198C34.4132 15.78 34.0603 15.9262 33.6922 15.9262Z" fill="#FFD60B"/>
<path d="M53.0618 25.2035C52.8795 25.2037 52.6989 25.1679 52.5305 25.0981C52.362 25.0282 52.2091 24.9258 52.0803 24.7967L49.9395 22.6559C49.6849 22.3945 49.5435 22.0433 49.5459 21.6785C49.5483 21.3136 49.6943 20.9644 49.9523 20.7064C50.2103 20.4484 50.5596 20.3024 50.9245 20.3C51.2893 20.2976 51.6404 20.4389 51.9018 20.6935L54.0427 22.8344C54.2368 23.0284 54.369 23.2756 54.4226 23.5448C54.4762 23.814 54.4488 24.0931 54.3438 24.3467C54.2388 24.6003 54.061 24.817 53.8328 24.9695C53.6046 25.1221 53.3363 25.2035 53.0618 25.2035Z" fill="#FFD60B"/>
<path d="M36.648 8.78963C36.4658 8.78999 36.2853 8.75428 36.117 8.68456C35.9486 8.61484 35.7957 8.5125 35.6671 8.38342L33.5263 6.24259C33.2717 5.98121 33.1303 5.63008 33.1327 5.26521C33.1351 4.90035 33.2811 4.55111 33.5391 4.2931C33.7971 4.0351 34.1464 3.88909 34.5112 3.88669C34.8761 3.88429 35.2272 4.02568 35.4886 4.28027L37.6295 6.4211C37.8234 6.6152 37.9554 6.86245 38.0089 7.13159C38.0624 7.40073 38.0348 7.67968 37.9298 7.93317C37.8247 8.18667 37.6469 8.40333 37.4188 8.55577C37.1906 8.70822 36.9224 8.7896 36.648 8.78963Z" fill="#FFD60B"/>
<path d="M43.7846 20.9724C42.5121 20.9724 41.2681 20.595 40.2101 19.8881C39.1521 19.1811 38.3274 18.1763 37.8405 17.0007C37.3535 15.825 37.2261 14.5314 37.4743 13.2833C37.7226 12.0353 38.3354 10.8889 39.2351 9.98911C40.1349 9.08932 41.2813 8.47655 42.5294 8.2283C43.7774 7.98005 45.0711 8.10746 46.2467 8.59443C47.4223 9.08139 48.4271 9.90603 49.1341 10.9641C49.8411 12.0221 50.2184 13.266 50.2184 14.5385C50.2164 16.2443 49.5379 17.8796 48.3318 19.0857C47.1256 20.2919 45.4903 20.9704 43.7846 20.9724Z" fill="#FFD60B"/>
<path d="M134.045 29.0461H112.613C109.945 29.0461 107.648 28.3397 105.97 27.0044C104.06 25.4835 103.051 23.2258 103.051 20.4735C103.051 15.728 106.513 13.007 110.269 12.1687C110.516 12.1124 110.741 11.9861 110.918 11.805C111.096 11.6239 111.217 11.3956 111.268 11.1474C111.901 8.12384 113.283 5.52978 115.322 3.56383C117.694 1.28289 120.862 0.0156868 124.153 0.0308971C127.079 0.0308971 129.778 0.9945 131.958 2.81702C133.447 4.07362 134.633 5.65195 135.424 7.43308C135.509 7.62427 135.638 7.79246 135.801 7.92375C135.964 8.05504 136.156 8.14567 136.361 8.18814C138.587 8.65057 140.571 9.61665 142.063 10.9784C144.151 12.88 145.255 15.4799 145.255 18.4951C145.255 21.4626 144.07 24.1729 141.918 26.1273C139.844 28.01 137.048 29.0461 134.045 29.0461Z" fill="#D9D9D9"/>
<path d="M216.22 26.0385H198.099C195.843 26.0385 193.901 25.4785 192.482 24.42C190.867 23.2144 190.014 21.4248 190.014 19.243C190.014 15.4814 192.941 13.3245 196.117 12.66C196.326 12.6153 196.516 12.5153 196.666 12.3717C196.816 12.2281 196.918 12.0471 196.961 11.8504C197.497 9.4537 198.665 7.39743 200.389 5.83906C202.395 4.03099 205.074 3.0265 207.856 3.03856C210.331 3.03856 212.612 3.80239 214.455 5.24707C215.715 6.24315 216.717 7.49427 217.386 8.90615C217.458 9.0577 217.567 9.19102 217.705 9.29509C217.843 9.39916 218.005 9.471 218.178 9.50467C220.06 9.87123 221.738 10.637 223 11.7164C224.765 13.2239 225.699 15.2847 225.699 17.6749C225.699 20.0271 224.696 22.1755 222.877 23.7247C221.124 25.2171 218.76 26.0385 216.22 26.0385Z" fill="#D9D9D9"/>
<path d="M284.965 5.83384C284.597 5.83384 284.244 5.68764 283.984 5.42739C283.724 5.16715 283.578 4.81419 283.578 4.44615V1.41845C283.578 1.05042 283.724 0.69745 283.984 0.437207C284.244 0.176965 284.597 0.0307617 284.965 0.0307617C285.333 0.0307617 285.686 0.176965 285.946 0.437207C286.207 0.69745 286.353 1.05042 286.353 1.41845V4.44615C286.353 4.81419 286.207 5.16715 285.946 5.42739C285.686 5.68764 285.333 5.83384 284.965 5.83384Z" fill="#FFD60B"/>
<path d="M284.965 29.0462C284.597 29.0462 284.244 28.9 283.984 28.6397C283.724 28.3795 283.578 28.0265 283.578 27.6585V24.6308C283.578 24.2628 283.724 23.9098 283.984 23.6495C284.244 23.3893 284.597 23.2431 284.965 23.2431C285.333 23.2431 285.686 23.3893 285.946 23.6495C286.207 23.9098 286.353 24.2628 286.353 24.6308V27.6585C286.353 28.0265 286.207 28.3795 285.946 28.6397C285.686 28.9 285.333 29.0462 284.965 29.0462Z" fill="#FFD60B"/>
<path d="M292.102 8.78963C291.827 8.7896 291.559 8.70822 291.331 8.55577C291.103 8.40333 290.925 8.18667 290.82 7.93317C290.715 7.67968 290.687 7.40073 290.741 7.13159C290.794 6.86245 290.926 6.6152 291.12 6.4211L293.261 4.28027C293.522 4.02568 293.874 3.88429 294.238 3.88669C294.603 3.88909 294.953 4.0351 295.211 4.2931C295.469 4.55111 295.615 4.90035 295.617 5.26521C295.619 5.63008 295.478 5.98121 295.223 6.24259L293.083 8.38342C292.954 8.51238 292.801 8.61466 292.633 8.68437C292.464 8.75408 292.284 8.78985 292.102 8.78963Z" fill="#FFD60B"/>
<path d="M275.688 25.2035C275.413 25.2035 275.145 25.122 274.917 24.9695C274.689 24.817 274.511 24.6002 274.406 24.3466C274.301 24.093 274.273 23.814 274.327 23.5448C274.381 23.2756 274.513 23.0284 274.707 22.8343L276.848 20.6935C276.976 20.5619 277.129 20.457 277.298 20.385C277.467 20.313 277.649 20.2753 277.833 20.2741C278.017 20.2729 278.199 20.3082 278.369 20.3779C278.539 20.4477 278.693 20.5505 278.823 20.6805C278.953 20.8104 279.056 20.9649 279.126 21.1349C279.195 21.3049 279.231 21.4871 279.23 21.6709C279.228 21.8546 279.191 22.0363 279.119 22.2054C279.047 22.3745 278.942 22.5276 278.81 22.6558L276.669 24.7967C276.541 24.9258 276.388 25.0282 276.219 25.098C276.051 25.1678 275.87 25.2037 275.688 25.2035Z" fill="#FFD60B"/>
<path d="M298.085 15.9262H295.058C294.69 15.9262 294.337 15.78 294.076 15.5198C293.816 15.2595 293.67 14.9065 293.67 14.5385C293.67 14.1705 293.816 13.8175 294.076 13.5573C294.337 13.297 294.69 13.1508 295.058 13.1508H298.085C298.453 13.1508 298.806 13.297 299.067 13.5573C299.327 13.8175 299.473 14.1705 299.473 14.5385C299.473 14.9065 299.327 15.2595 299.067 15.5198C298.806 15.78 298.453 15.9262 298.085 15.9262Z" fill="#FFD60B"/>
<path d="M274.873 15.9262H271.845C271.477 15.9262 271.124 15.78 270.864 15.5198C270.604 15.2595 270.458 14.9065 270.458 14.5385C270.458 14.1705 270.604 13.8175 270.864 13.5573C271.124 13.297 271.477 13.1508 271.845 13.1508H274.873C275.241 13.1508 275.594 13.297 275.854 13.5573C276.114 13.8175 276.261 14.1705 276.261 14.5385C276.261 14.9065 276.114 15.2595 275.854 15.5198C275.594 15.78 275.241 15.9262 274.873 15.9262Z" fill="#FFD60B"/>
<path d="M294.242 25.2035C294.06 25.2037 293.88 25.1679 293.711 25.0981C293.543 25.0282 293.39 24.9258 293.261 24.7967L291.12 22.6559C290.866 22.3945 290.724 22.0433 290.727 21.6785C290.729 21.3136 290.875 20.9644 291.133 20.7064C291.391 20.4484 291.74 20.3024 292.105 20.3C292.47 20.2976 292.821 20.4389 293.082 20.6935L295.223 22.8344C295.417 23.0284 295.55 23.2756 295.603 23.5448C295.657 23.814 295.629 24.0931 295.524 24.3467C295.419 24.6003 295.242 24.817 295.013 24.9695C294.785 25.1221 294.517 25.2035 294.242 25.2035Z" fill="#FFD60B"/>
<path d="M277.829 8.78963C277.646 8.78999 277.466 8.75428 277.298 8.68456C277.129 8.61484 276.976 8.5125 276.848 8.38342L274.707 6.24259C274.452 5.98121 274.311 5.63008 274.313 5.26521C274.316 4.90035 274.462 4.55111 274.72 4.2931C274.978 4.0351 275.327 3.88909 275.692 3.88669C276.057 3.88429 276.408 4.02568 276.669 4.28027L278.81 6.4211C279.004 6.6152 279.136 6.86245 279.19 7.13159C279.243 7.40073 279.215 7.67968 279.11 7.93317C279.005 8.18667 278.828 8.40333 278.599 8.55577C278.371 8.70822 278.103 8.7896 277.829 8.78963Z" fill="#FFD60B"/>
<path d="M284.965 20.9724C283.693 20.9724 282.449 20.595 281.391 19.8881C280.333 19.1811 279.508 18.1763 279.021 17.0007C278.534 15.825 278.407 14.5314 278.655 13.2833C278.903 12.0353 279.516 10.8889 280.416 9.98911C281.316 9.08932 282.462 8.47655 283.71 8.2283C284.958 7.98005 286.252 8.10746 287.427 8.59443C288.603 9.08139 289.608 9.90603 290.315 10.9641C291.022 12.0221 291.399 13.266 291.399 14.5385C291.397 16.2443 290.719 17.8796 289.512 19.0857C288.306 20.2919 286.671 20.9704 284.965 20.9724Z" fill="#FFD60B"/>
<path d="M358.74 5.83384C358.372 5.83384 358.019 5.68764 357.758 5.42739C357.498 5.16715 357.352 4.81419 357.352 4.44615V1.41845C357.352 1.05042 357.498 0.69745 357.758 0.437207C358.019 0.176965 358.372 0.0307617 358.74 0.0307617C359.108 0.0307617 359.461 0.176965 359.721 0.437207C359.981 0.69745 360.127 1.05042 360.127 1.41845V4.44615C360.127 4.81419 359.981 5.16715 359.721 5.42739C359.461 5.68764 359.108 5.83384 358.74 5.83384Z" fill="#FFD60B"/>
<path d="M358.74 29.0462C358.372 29.0462 358.019 28.9 357.758 28.6397C357.498 28.3795 357.352 28.0265 357.352 27.6585V24.6308C357.352 24.2628 357.498 23.9098 357.758 23.6495C358.019 23.3893 358.372 23.2431 358.74 23.2431C359.108 23.2431 359.461 23.3893 359.721 23.6495C359.981 23.9098 360.127 24.2628 360.127 24.6308V27.6585C360.127 28.0265 359.981 28.3795 359.721 28.6397C359.461 28.9 359.108 29.0462 358.74 29.0462Z" fill="#FFD60B"/>
<path d="M365.876 8.78963C365.602 8.7896 365.334 8.70822 365.105 8.55577C364.877 8.40333 364.699 8.18667 364.594 7.93317C364.489 7.67968 364.462 7.40073 364.515 7.13159C364.569 6.86245 364.701 6.6152 364.895 6.4211L367.036 4.28027C367.297 4.02568 367.648 3.88429 368.013 3.88669C368.378 3.88909 368.727 4.0351 368.985 4.2931C369.243 4.55111 369.389 4.90035 369.391 5.26521C369.394 5.63008 369.252 5.98121 368.998 6.24259L366.857 8.38342C366.728 8.51238 366.575 8.61466 366.407 8.68437C366.239 8.75408 366.058 8.78985 365.876 8.78963Z" fill="#FFD60B"/>
<path d="M349.462 25.2035C349.188 25.2035 348.919 25.122 348.691 24.9695C348.463 24.817 348.285 24.6002 348.18 24.3466C348.075 24.093 348.048 23.814 348.101 23.5448C348.155 23.2756 348.287 23.0284 348.481 22.8343L350.622 20.6935C350.75 20.5619 350.904 20.457 351.073 20.385C351.242 20.313 351.423 20.2753 351.607 20.2741C351.791 20.2729 351.973 20.3082 352.143 20.3779C352.313 20.4477 352.468 20.5505 352.598 20.6805C352.727 20.8104 352.83 20.9649 352.9 21.1349C352.97 21.3049 353.005 21.4871 353.004 21.6709C353.003 21.8546 352.965 22.0363 352.893 22.2054C352.821 22.3745 352.716 22.5276 352.585 22.6558L350.444 24.7967C350.315 24.9258 350.162 25.0282 349.994 25.098C349.825 25.1678 349.645 25.2037 349.462 25.2035Z" fill="#FFD60B"/>
<path d="M371.86 15.9262H368.832C368.464 15.9262 368.111 15.78 367.851 15.5198C367.591 15.2595 367.444 14.9065 367.444 14.5385C367.444 14.1705 367.591 13.8175 367.851 13.5573C368.111 13.297 368.464 13.1508 368.832 13.1508H371.86C372.228 13.1508 372.581 13.297 372.841 13.5573C373.101 13.8175 373.247 14.1705 373.247 14.5385C373.247 14.9065 373.101 15.2595 372.841 15.5198C372.581 15.78 372.228 15.9262 371.86 15.9262Z" fill="#FFD60B"/>
<path d="M348.647 15.9262H345.62C345.252 15.9262 344.899 15.78 344.638 15.5198C344.378 15.2595 344.232 14.9065 344.232 14.5385C344.232 14.1705 344.378 13.8175 344.638 13.5573C344.899 13.297 345.252 13.1508 345.62 13.1508H348.647C349.015 13.1508 349.368 13.297 349.629 13.5573C349.889 13.8175 350.035 14.1705 350.035 14.5385C350.035 14.9065 349.889 15.2595 349.629 15.5198C349.368 15.78 349.015 15.9262 348.647 15.9262Z" fill="#FFD60B"/>
<path d="M368.017 25.2035C367.835 25.2037 367.654 25.1679 367.486 25.0981C367.317 25.0282 367.164 24.9258 367.035 24.7967L364.895 22.6559C364.64 22.3945 364.499 22.0433 364.501 21.6785C364.503 21.3136 364.649 20.9644 364.907 20.7064C365.165 20.4484 365.515 20.3024 365.88 20.3C366.244 20.2976 366.596 20.4389 366.857 20.6935L368.998 22.8344C369.192 23.0284 369.324 23.2756 369.378 23.5448C369.431 23.814 369.404 24.0931 369.299 24.3467C369.194 24.6003 369.016 24.817 368.788 24.9695C368.56 25.1221 368.291 25.2035 368.017 25.2035Z" fill="#FFD60B"/>
<path d="M351.603 8.78963C351.421 8.78999 351.24 8.75428 351.072 8.68456C350.904 8.61484 350.751 8.5125 350.622 8.38342L348.481 6.24259C348.227 5.98121 348.085 5.63008 348.088 5.26521C348.09 4.90035 348.236 4.55111 348.494 4.2931C348.752 4.0351 349.101 3.88909 349.466 3.88669C349.831 3.88429 350.182 4.02568 350.444 4.28027L352.585 6.4211C352.778 6.6152 352.911 6.86245 352.964 7.13159C353.017 7.40073 352.99 7.67968 352.885 7.93317C352.78 8.18667 352.602 8.40333 352.374 8.55577C352.146 8.70822 351.877 8.7896 351.603 8.78963Z" fill="#FFD60B"/>
<path d="M358.74 20.9724C357.467 20.9724 356.223 20.595 355.165 19.8881C354.107 19.1811 353.282 18.1763 352.796 17.0007C352.309 15.825 352.181 14.5314 352.429 13.2833C352.678 12.0353 353.29 10.8889 354.19 9.98911C355.09 9.08932 356.236 8.47655 357.484 8.2283C358.732 7.98005 360.026 8.10746 361.202 8.59443C362.377 9.08139 363.382 9.90603 364.089 10.9641C364.796 12.0221 365.173 13.266 365.173 14.5385C365.171 16.2443 364.493 17.8796 363.287 19.0857C362.081 20.2919 360.445 20.9704 358.74 20.9724Z" fill="#FFD60B"/>
<path d="M449 29.0461H427.568C424.9 29.0461 422.603 28.3397 420.925 27.0044C419.015 25.4835 418.006 23.2258 418.006 20.4735C418.006 15.728 421.468 13.007 425.224 12.1687C425.471 12.1124 425.696 11.9861 425.873 11.805C426.051 11.6239 426.172 11.3956 426.223 11.1474C426.856 8.12384 428.238 5.52978 430.277 3.56383C432.649 1.28289 435.817 0.0156868 439.108 0.0308971C442.034 0.0308971 444.733 0.9945 446.913 2.81702C448.402 4.07362 449.587 5.65195 450.379 7.43308C450.464 7.62427 450.593 7.79246 450.756 7.92375C450.919 8.05504 451.111 8.14567 451.316 8.18814C453.542 8.65057 455.526 9.61665 457.018 10.9784C459.106 12.88 460.21 15.4799 460.21 18.4951C460.21 21.4626 459.025 24.1729 456.873 26.1273C454.799 28.01 452.003 29.0461 449 29.0461Z" fill="#D9D9D9"/>
</svg>
