<svg width="36" height="24" viewBox="0 0 36 24" fill="none" xmlns="http://www.w3.org/2000/svg">
<path d="M26.4375 23.5016H8.15625C5.88023 23.5016 3.92133 22.9367 2.48977 21.8688C0.860625 20.6527 0 18.8472 0 16.6462C0 12.8513 2.95312 10.6753 6.15656 10.0049C6.36728 9.95992 6.55971 9.85895 6.71083 9.71412C6.86196 9.56928 6.96539 9.3867 7.00875 9.18821C7.54875 6.77034 8.72789 4.6959 10.4667 3.12375C12.4906 1.29971 15.1926 0.286346 18 0.298509C20.4961 0.298509 22.7981 1.06909 24.6572 2.52654C25.928 3.53142 26.9389 4.79359 27.6138 6.21794C27.6864 6.37083 27.7968 6.50533 27.9358 6.61032C28.0748 6.71532 28.2385 6.78779 28.4133 6.82175C30.3117 7.19155 32.0041 7.96411 33.2775 9.05307C35.0585 10.5738 36 12.6529 36 15.0641C36 17.4372 34.9889 19.6046 33.153 21.1675C31.3847 22.673 28.9997 23.5016 26.4375 23.5016Z" fill="#D9D9D9"/>
</svg>
