<svg width="36" height="37" viewBox="0 0 36 37" fill="none" xmlns="http://www.w3.org/2000/svg">
<path d="M18.0001 7.89995C17.5434 7.89995 17.1055 7.71855 16.7826 7.39567C16.4597 7.07278 16.2783 6.63485 16.2783 6.17821V2.42169C16.2783 1.96506 16.4597 1.52713 16.7826 1.20424C17.1055 0.881348 17.5434 0.699951 18.0001 0.699951C18.4567 0.699951 18.8946 0.881348 19.2175 1.20424C19.5404 1.52713 19.7218 1.96506 19.7218 2.42169V6.17821C19.7218 6.63485 19.5404 7.07278 19.2175 7.39567C18.8946 7.71855 18.4567 7.89995 18.0001 7.89995Z" fill="#FFD60B"/>
<path d="M18.0001 36.7C17.5434 36.7 17.1055 36.5186 16.7826 36.1957C16.4597 35.8728 16.2783 35.4349 16.2783 34.9783V31.2217C16.2783 30.7651 16.4597 30.3272 16.7826 30.0043C17.1055 29.6814 17.5434 29.5 18.0001 29.5C18.4567 29.5 18.8946 29.6814 19.2175 30.0043C19.5404 30.3272 19.7218 30.7651 19.7218 31.2217V34.9783C19.7218 35.4349 19.5404 35.8728 19.2175 36.1957C18.8946 36.5186 18.4567 36.7 18.0001 36.7Z" fill="#FFD60B"/>
<path d="M26.8543 11.5673C26.5139 11.5673 26.1811 11.4663 25.898 11.2771C25.6149 11.088 25.3943 10.8192 25.264 10.5047C25.1336 10.1901 25.0995 9.84405 25.1658 9.51013C25.2321 9.1762 25.396 8.86943 25.6366 8.6286L28.2928 5.97243C28.6171 5.65656 29.0527 5.48113 29.5054 5.48411C29.9581 5.48709 30.3914 5.66824 30.7115 5.98836C31.0317 6.30847 31.2128 6.74177 31.2158 7.19447C31.2188 7.64717 31.0433 8.08282 30.7275 8.40712L28.0713 11.0633C27.9116 11.2233 27.7219 11.3502 27.5131 11.4367C27.3043 11.5232 27.0804 11.5676 26.8543 11.5673Z" fill="#FFD60B"/>
<path d="M6.48935 31.9323C6.14881 31.9323 5.81592 31.8312 5.5328 31.642C5.24968 31.4528 5.02903 31.1838 4.89876 30.8692C4.7685 30.5545 4.73447 30.2083 4.80098 29.8743C4.86748 29.5403 5.03154 29.2336 5.27239 28.9928L7.92857 26.3366C8.08766 26.1733 8.27761 26.0432 8.48739 25.9539C8.69717 25.8645 8.92261 25.8178 9.15061 25.8163C9.37862 25.8148 9.60465 25.8586 9.81559 25.9451C10.0265 26.0317 10.2182 26.1593 10.3794 26.3205C10.5406 26.4817 10.6682 26.6734 10.7548 26.8843C10.8414 27.0953 10.8852 27.3213 10.8837 27.5493C10.8822 27.7773 10.8354 28.0027 10.746 28.2125C10.6567 28.4223 10.5266 28.6123 10.3633 28.7713L7.70709 31.4275C7.54737 31.5877 7.35757 31.7148 7.14859 31.8014C6.93961 31.8881 6.71557 31.9325 6.48935 31.9323Z" fill="#FFD60B"/>
<path d="M34.2783 20.4217H30.5218C30.0652 20.4217 29.6272 20.2404 29.3043 19.9175C28.9814 19.5946 28.8 19.1566 28.8 18.7C28.8 18.2434 28.9814 17.8054 29.3043 17.4826C29.6272 17.1597 30.0652 16.9783 30.5218 16.9783H34.2783C34.7349 16.9783 35.1729 17.1597 35.4958 17.4826C35.8187 17.8054 36 18.2434 36 18.7C36 19.1566 35.8187 19.5946 35.4958 19.9175C35.1729 20.2404 34.7349 20.4217 34.2783 20.4217Z" fill="#FFD60B"/>
<path d="M5.47826 20.4217H1.72174C1.26511 20.4217 0.827174 20.2404 0.504286 19.9175C0.181397 19.5946 0 19.1566 0 18.7C0 18.2434 0.181397 17.8054 0.504286 17.4826C0.827174 17.1597 1.26511 16.9783 1.72174 16.9783H5.47826C5.93489 16.9783 6.37283 17.1597 6.69571 17.4826C7.0186 17.8054 7.2 18.2434 7.2 18.7C7.2 19.1566 7.0186 19.5946 6.69571 19.9175C6.37283 20.2404 5.93489 20.4217 5.47826 20.4217Z" fill="#FFD60B"/>
<path d="M29.5105 31.9323C29.2842 31.9326 29.0602 31.8881 28.8512 31.8015C28.6422 31.7148 28.4524 31.5878 28.2927 31.4276L25.6365 28.7714C25.3207 28.4471 25.1452 28.0114 25.1482 27.5587C25.1512 27.106 25.3324 26.6727 25.6525 26.3526C25.9726 26.0325 26.4059 25.8513 26.8586 25.8484C27.3113 25.8454 27.7469 26.0208 28.0712 26.3367L30.7274 28.9929C30.9683 29.2336 31.1323 29.5404 31.1988 29.8744C31.2653 30.2083 31.2313 30.5545 31.101 30.8692C30.9708 31.1838 30.7501 31.4528 30.467 31.642C30.1839 31.8313 29.851 31.9323 29.5105 31.9323Z" fill="#FFD60B"/>
<path d="M9.14542 11.5673C8.91935 11.5677 8.69543 11.5234 8.48657 11.4369C8.2777 11.3504 8.08803 11.2234 7.92847 11.0633L5.27229 8.40712C4.95643 8.08282 4.78099 7.64717 4.78397 7.19447C4.78695 6.74177 4.96811 6.30847 5.28822 5.98836C5.60833 5.66824 6.04164 5.48709 6.49434 5.48411C6.94703 5.48113 7.38269 5.65656 7.70699 5.97243L10.3632 8.6286C10.6038 8.86943 10.7676 9.1762 10.834 9.51013C10.9003 9.84405 10.8661 10.1901 10.7358 10.5047C10.6055 10.8192 10.3848 11.088 10.1017 11.2771C9.81867 11.4663 9.48587 11.5673 9.14542 11.5673Z" fill="#FFD60B"/>
<path d="M17.9999 26.6826C16.4211 26.6826 14.8778 26.2145 13.565 25.3373C12.2523 24.4602 11.2292 23.2135 10.625 21.7548C10.0208 20.2962 9.86271 18.6912 10.1707 17.1427C10.4787 15.5942 11.239 14.1719 12.3554 13.0555C13.4718 11.9391 14.8941 11.1788 16.4426 10.8708C17.9911 10.5628 19.5961 10.7209 21.0548 11.3251C22.5134 11.9292 23.7601 12.9524 24.6372 14.2651C25.5144 15.5779 25.9826 17.1212 25.9826 18.7C25.9801 20.8164 25.1382 22.8453 23.6418 24.3418C22.1453 25.8383 20.1163 26.6801 17.9999 26.6826Z" fill="#FFD60B"/>
</svg>
