<svg width="37" height="37" viewBox="0 0 37 37" fill="none" xmlns="http://www.w3.org/2000/svg">
<path d="M18.5001 7.49999C18.0434 7.49999 17.6055 7.31859 17.2826 6.9957C16.9597 6.67281 16.7783 6.23488 16.7783 5.77825V2.02173C16.7783 1.56509 16.9597 1.12716 17.2826 0.804273C17.6055 0.481385 18.0434 0.299988 18.5001 0.299988C18.9567 0.299988 19.3946 0.481385 19.7175 0.804273C20.0404 1.12716 20.2218 1.56509 20.2218 2.02173V5.77825C20.2218 6.23488 20.0404 6.67281 19.7175 6.9957C19.3946 7.31859 18.9567 7.49999 18.5001 7.49999Z" fill="#FFD60B"/>
<path d="M18.5001 36.3C18.0434 36.3 17.6055 36.1186 17.2826 35.7957C16.9597 35.4729 16.7783 35.0349 16.7783 34.5783V30.8218C16.7783 30.3651 16.9597 29.9272 17.2826 29.6043C17.6055 29.2814 18.0434 29.1 18.5001 29.1C18.9567 29.1 19.3946 29.2814 19.7175 29.6043C20.0404 29.9272 20.2218 30.3651 20.2218 30.8218V34.5783C20.2218 35.0349 20.0404 35.4729 19.7175 35.7957C19.3946 36.1186 18.9567 36.3 18.5001 36.3Z" fill="#FFD60B"/>
<path d="M27.3543 11.1673C27.0139 11.1673 26.6811 11.0663 26.398 10.8772C26.1149 10.688 25.8943 10.4192 25.764 10.1047C25.6336 9.79019 25.5995 9.44409 25.6658 9.11016C25.7321 8.77624 25.896 8.46947 26.1366 8.22864L28.7928 5.57246C29.1171 5.2566 29.5527 5.08116 30.0054 5.08414C30.4581 5.08712 30.8914 5.26828 31.2115 5.58839C31.5317 5.9085 31.7128 6.34181 31.7158 6.79451C31.7188 7.2472 31.5433 7.68286 31.2275 8.00716L28.5713 10.6633C28.4116 10.8233 28.2219 10.9502 28.0131 11.0367C27.8043 11.1232 27.5804 11.1676 27.3543 11.1673Z" fill="#FFD60B"/>
<path d="M6.98935 31.5323C6.64881 31.5323 6.31592 31.4313 6.0328 31.242C5.74968 31.0528 5.52903 30.7838 5.39876 30.4692C5.2685 30.1545 5.23447 29.8083 5.30098 29.4744C5.36748 29.1404 5.53154 28.8336 5.77239 28.5929L8.42857 25.9367C8.58766 25.7733 8.77761 25.6432 8.98739 25.5539C9.19717 25.4646 9.42261 25.4178 9.65061 25.4163C9.87862 25.4148 10.1047 25.4586 10.3156 25.5452C10.5265 25.6317 10.7182 25.7593 10.8794 25.9205C11.0406 26.0818 11.1682 26.2734 11.2548 26.4844C11.3414 26.6953 11.3852 26.9213 11.3837 27.1493C11.3822 27.3773 11.3354 27.6028 11.246 27.8126C11.1567 28.0223 11.0266 28.2123 10.8633 28.3714L8.20709 31.0276C8.04737 31.1878 7.85757 31.3148 7.64859 31.4015C7.43961 31.4881 7.21557 31.5326 6.98935 31.5323Z" fill="#FFD60B"/>
<path d="M34.7783 20.0218H31.0218C30.5652 20.0218 30.1272 19.8404 29.8043 19.5175C29.4814 19.1946 29.3 18.7567 29.3 18.3C29.3 17.8434 29.4814 17.4055 29.8043 17.0826C30.1272 16.7597 30.5652 16.5783 31.0218 16.5783H34.7783C35.2349 16.5783 35.6729 16.7597 35.9958 17.0826C36.3187 17.4055 36.5 17.8434 36.5 18.3C36.5 18.7567 36.3187 19.1946 35.9958 19.5175C35.6729 19.8404 35.2349 20.0218 34.7783 20.0218Z" fill="#FFD60B"/>
<path d="M5.97826 20.0218H2.22174C1.76511 20.0218 1.32717 19.8404 1.00429 19.5175C0.681397 19.1946 0.5 18.7567 0.5 18.3C0.5 17.8434 0.681397 17.4055 1.00429 17.0826C1.32717 16.7597 1.76511 16.5783 2.22174 16.5783H5.97826C6.43489 16.5783 6.87283 16.7597 7.19571 17.0826C7.5186 17.4055 7.7 17.8434 7.7 18.3C7.7 18.7567 7.5186 19.1946 7.19571 19.5175C6.87283 19.8404 6.43489 20.0218 5.97826 20.0218Z" fill="#FFD60B"/>
<path d="M30.0105 31.5324C29.7842 31.5326 29.5602 31.4881 29.3512 31.4015C29.1422 31.3149 28.9524 31.1878 28.7927 31.0276L26.1365 28.3714C25.8207 28.0471 25.6452 27.6115 25.6482 27.1588C25.6512 26.7061 25.8324 26.2728 26.1525 25.9527C26.4726 25.6325 26.9059 25.4514 27.3586 25.4484C27.8113 25.4454 28.2469 25.6209 28.5712 25.9367L31.2274 28.5929C31.4683 28.8336 31.6323 29.1404 31.6988 29.4744C31.7653 29.8084 31.7313 30.1546 31.601 30.4692C31.4708 30.7839 31.2501 31.0528 30.967 31.2421C30.6839 31.4313 30.351 31.5323 30.0105 31.5324Z" fill="#FFD60B"/>
<path d="M9.64542 11.1673C9.41935 11.1678 9.19543 11.1235 8.98657 11.037C8.7777 10.9505 8.58803 10.8235 8.42847 10.6633L5.77229 8.00716C5.45643 7.68286 5.28099 7.2472 5.28397 6.79451C5.28695 6.34181 5.46811 5.9085 5.78822 5.58839C6.10833 5.26828 6.54164 5.08712 6.99434 5.08414C7.44703 5.08116 7.88269 5.2566 8.20699 5.57246L10.8632 8.22864C11.1038 8.46947 11.2676 8.77624 11.334 9.11016C11.4003 9.44409 11.3661 9.79019 11.2358 10.1047C11.1055 10.4192 10.8848 10.688 10.6017 10.8772C10.3187 11.0663 9.98587 11.1673 9.64542 11.1673Z" fill="#FFD60B"/>
<path d="M18.4999 26.2827C16.9211 26.2827 15.3778 25.8145 14.065 24.9374C12.7523 24.0602 11.7292 22.8135 11.125 21.3549C10.5208 19.8962 10.3627 18.2912 10.6707 16.7427C10.9787 15.1943 11.739 13.7719 12.8554 12.6555C13.9718 11.5391 15.3941 10.7788 16.9426 10.4708C18.4911 10.1628 20.0961 10.3209 21.5548 10.9251C23.0134 11.5293 24.2601 12.5524 25.1372 13.8652C26.0144 15.1779 26.4826 16.7212 26.4826 18.3001C26.4801 20.4164 25.6382 22.4454 24.1418 23.9419C22.6453 25.4384 20.6163 26.2802 18.4999 26.2827Z" fill="#FFD60B"/>
</svg>
