<svg width="37" height="37" viewBox="0 0 37 37" fill="none" xmlns="http://www.w3.org/2000/svg">
<path d="M18.5001 7.70006C18.0434 7.70006 17.6055 7.51866 17.2826 7.19578C16.9597 6.87289 16.7783 6.43496 16.7783 5.97832V2.2218C16.7783 1.76517 16.9597 1.32724 17.2826 1.00435C17.6055 0.681458 18.0434 0.500061 18.5001 0.500061C18.9567 0.500061 19.3946 0.681458 19.7175 1.00435C20.0404 1.32724 20.2218 1.76517 20.2218 2.2218V5.97832C20.2218 6.43496 20.0404 6.87289 19.7175 7.19578C19.3946 7.51866 18.9567 7.70006 18.5001 7.70006Z" fill="#FFD60B"/>
<path d="M18.5001 36.5001C18.0434 36.5001 17.6055 36.3187 17.2826 35.9958C16.9597 35.6729 16.7783 35.235 16.7783 34.7784V31.0218C16.7783 30.5652 16.9597 30.1273 17.2826 29.8044C17.6055 29.4815 18.0434 29.3001 18.5001 29.3001C18.9567 29.3001 19.3946 29.4815 19.7175 29.8044C20.0404 30.1273 20.2218 30.5652 20.2218 31.0218V34.7784C20.2218 35.235 20.0404 35.6729 19.7175 35.9958C19.3946 36.3187 18.9567 36.5001 18.5001 36.5001Z" fill="#FFD60B"/>
<path d="M27.3543 11.3674C27.0139 11.3673 26.6811 11.2664 26.398 11.0772C26.1149 10.8881 25.8943 10.6193 25.764 10.3047C25.6336 9.99023 25.5995 9.64413 25.6658 9.31021C25.7321 8.97628 25.896 8.66951 26.1366 8.42868L28.7928 5.77251C29.1171 5.45664 29.5527 5.28121 30.0054 5.28419C30.4581 5.28717 30.8914 5.46832 31.2115 5.78844C31.5317 6.10855 31.7128 6.54185 31.7158 6.99455C31.7188 7.44725 31.5433 7.8829 31.2275 8.2072L28.5713 10.8634C28.4116 11.0234 28.2219 11.1503 28.0131 11.2368C27.8043 11.3233 27.5804 11.3676 27.3543 11.3674Z" fill="#FFD60B"/>
<path d="M6.98935 31.7324C6.64881 31.7324 6.31592 31.6313 6.0328 31.4421C5.74968 31.2529 5.52903 30.9839 5.39876 30.6693C5.2685 30.3546 5.23447 30.0084 5.30098 29.6744C5.36748 29.3404 5.53154 29.0337 5.77239 28.7929L8.42857 26.1368C8.58766 25.9734 8.77761 25.8433 8.98739 25.754C9.19717 25.6646 9.42261 25.6179 9.65061 25.6164C9.87862 25.6149 10.1047 25.6587 10.3156 25.7452C10.5265 25.8318 10.7182 25.9594 10.8794 26.1206C11.0406 26.2818 11.1682 26.4735 11.2548 26.6844C11.3414 26.8954 11.3852 27.1214 11.3837 27.3494C11.3822 27.5774 11.3354 27.8029 11.246 28.0126C11.1567 28.2224 11.0266 28.4124 10.8633 28.5715L8.20709 31.2276C8.04737 31.3878 7.85757 31.5149 7.64859 31.6015C7.43961 31.6882 7.21557 31.7326 6.98935 31.7324Z" fill="#FFD60B"/>
<path d="M34.7783 20.2219H31.0218C30.5652 20.2219 30.1272 20.0405 29.8043 19.7176C29.4814 19.3947 29.3 18.9568 29.3 18.5001C29.3 18.0435 29.4814 17.6056 29.8043 17.2827C30.1272 16.9598 30.5652 16.7784 31.0218 16.7784H34.7783C35.2349 16.7784 35.6729 16.9598 35.9958 17.2827C36.3187 17.6056 36.5 18.0435 36.5 18.5001C36.5 18.9568 36.3187 19.3947 35.9958 19.7176C35.6729 20.0405 35.2349 20.2219 34.7783 20.2219Z" fill="#FFD60B"/>
<path d="M5.97826 20.2219H2.22174C1.76511 20.2219 1.32717 20.0405 1.00429 19.7176C0.681397 19.3947 0.5 18.9568 0.5 18.5001C0.5 18.0435 0.681397 17.6056 1.00429 17.2827C1.32717 16.9598 1.76511 16.7784 2.22174 16.7784H5.97826C6.43489 16.7784 6.87283 16.9598 7.19571 17.2827C7.5186 17.6056 7.7 18.0435 7.7 18.5001C7.7 18.9568 7.5186 19.3947 7.19571 19.7176C6.87283 20.0405 6.43489 20.2219 5.97826 20.2219Z" fill="#FFD60B"/>
<path d="M30.0105 31.7324C29.7842 31.7327 29.5602 31.6882 29.3512 31.6016C29.1422 31.5149 28.9524 31.3879 28.7927 31.2277L26.1365 28.5715C25.8207 28.2472 25.6452 27.8115 25.6482 27.3588C25.6512 26.9061 25.8324 26.4728 26.1525 26.1527C26.4726 25.8326 26.9059 25.6515 27.3586 25.6485C27.8113 25.6455 28.2469 25.8209 28.5712 26.1368L31.2274 28.793C31.4683 29.0337 31.6323 29.3405 31.6988 29.6745C31.7653 30.0085 31.7313 30.3547 31.601 30.6693C31.4708 30.9839 31.2501 31.2529 30.967 31.4421C30.6839 31.6314 30.351 31.7324 30.0105 31.7324Z" fill="#FFD60B"/>
<path d="M9.64542 11.3674C9.41935 11.3678 9.19543 11.3235 8.98657 11.237C8.7777 11.1505 8.58803 11.0235 8.42847 10.8634L5.77229 8.2072C5.45643 7.8829 5.28099 7.44725 5.28397 6.99455C5.28695 6.54185 5.46811 6.10855 5.78822 5.78844C6.10833 5.46832 6.54164 5.28717 6.99434 5.28419C7.44703 5.28121 7.88269 5.45664 8.20699 5.77251L10.8632 8.42868C11.1038 8.66951 11.2676 8.97628 11.334 9.31021C11.4003 9.64413 11.3661 9.99023 11.2358 10.3047C11.1055 10.6193 10.8848 10.8881 10.6017 11.0772C10.3187 11.2664 9.98587 11.3673 9.64542 11.3674Z" fill="#FFD60B"/>
<path d="M18.4999 26.4828C16.9211 26.4828 15.3778 26.0146 14.065 25.1375C12.7523 24.2603 11.7292 23.0136 11.125 21.555C10.5208 20.0963 10.3627 18.4913 10.6707 16.9428C10.9787 15.3944 11.739 13.972 12.8554 12.8556C13.9718 11.7392 15.3941 10.9789 16.9426 10.6709C18.4911 10.3629 20.0961 10.521 21.5548 11.1252C23.0134 11.7294 24.2601 12.7525 25.1372 14.0653C26.0144 15.378 26.4826 16.9213 26.4826 18.5002C26.4801 20.6165 25.6382 22.6455 24.1418 24.142C22.6453 25.6385 20.6163 26.4803 18.4999 26.4828Z" fill="#FFD60B"/>
</svg>
