<svg width="36" height="37" viewBox="0 0 36 37" fill="none" xmlns="http://www.w3.org/2000/svg">
<path d="M18.0001 7.29998C17.5434 7.29998 17.1055 7.11858 16.7826 6.79569C16.4597 6.4728 16.2783 6.03487 16.2783 5.57824V1.82171C16.2783 1.36508 16.4597 0.92715 16.7826 0.604261C17.1055 0.281372 17.5434 0.0999756 18.0001 0.0999756C18.4567 0.0999756 18.8946 0.281372 19.2175 0.604261C19.5404 0.92715 19.7218 1.36508 19.7218 1.82171V5.57824C19.7218 6.03487 19.5404 6.4728 19.2175 6.79569C18.8946 7.11858 18.4567 7.29998 18.0001 7.29998Z" fill="#FFD60B"/>
<path d="M18.0001 36.1C17.5434 36.1 17.1055 35.9186 16.7826 35.5957C16.4597 35.2728 16.2783 34.8349 16.2783 34.3783V30.6218C16.2783 30.1651 16.4597 29.7272 16.7826 29.4043C17.1055 29.0814 17.5434 28.9 18.0001 28.9C18.4567 28.9 18.8946 29.0814 19.2175 29.4043C19.5404 29.7272 19.7218 30.1651 19.7218 30.6218V34.3783C19.7218 34.8349 19.5404 35.2728 19.2175 35.5957C18.8946 35.9186 18.4567 36.1 18.0001 36.1Z" fill="#FFD60B"/>
<path d="M26.8543 10.9673C26.5139 10.9673 26.1811 10.8663 25.898 10.6772C25.6149 10.488 25.3943 10.2192 25.264 9.90469C25.1336 9.59017 25.0995 9.24408 25.1658 8.91015C25.2321 8.57623 25.396 8.26946 25.6366 8.02863L28.2928 5.37245C28.6171 5.05658 29.0527 4.88115 29.5054 4.88413C29.9581 4.88711 30.3914 5.06827 30.7115 5.38838C31.0317 5.70849 31.2128 6.1418 31.2158 6.5945C31.2188 7.04719 31.0433 7.48285 30.7275 7.80715L28.0713 10.4633C27.9116 10.6233 27.7219 10.7502 27.5131 10.8367C27.3043 10.9232 27.0804 10.9676 26.8543 10.9673Z" fill="#FFD60B"/>
<path d="M6.48935 31.3323C6.14881 31.3323 5.81592 31.2313 5.5328 31.042C5.24968 30.8528 5.02903 30.5838 4.89876 30.2692C4.7685 29.9545 4.73447 29.6083 4.80098 29.2743C4.86748 28.9404 5.03154 28.6336 5.27239 28.3928L7.92857 25.7367C8.08766 25.5733 8.27761 25.4432 8.48739 25.3539C8.69717 25.2646 8.92261 25.2178 9.15061 25.2163C9.37862 25.2148 9.60465 25.2586 9.81559 25.3451C10.0265 25.4317 10.2182 25.5593 10.3794 25.7205C10.5406 25.8818 10.6682 26.0734 10.7548 26.2843C10.8414 26.4953 10.8852 26.7213 10.8837 26.9493C10.8822 27.1773 10.8354 27.4028 10.746 27.6125C10.6567 27.8223 10.5266 28.0123 10.3633 28.1714L7.70709 30.8275C7.54737 30.9878 7.35757 31.1148 7.14859 31.2015C6.93961 31.2881 6.71557 31.3326 6.48935 31.3323Z" fill="#FFD60B"/>
<path d="M34.2783 19.8218H30.5218C30.0652 19.8218 29.6272 19.6404 29.3043 19.3175C28.9814 18.9946 28.8 18.5567 28.8 18.1C28.8 17.6434 28.9814 17.2055 29.3043 16.8826C29.6272 16.5597 30.0652 16.3783 30.5218 16.3783H34.2783C34.7349 16.3783 35.1729 16.5597 35.4958 16.8826C35.8187 17.2055 36 17.6434 36 18.1C36 18.5567 35.8187 18.9946 35.4958 19.3175C35.1729 19.6404 34.7349 19.8218 34.2783 19.8218Z" fill="#FFD60B"/>
<path d="M5.47826 19.8218H1.72174C1.26511 19.8218 0.827174 19.6404 0.504286 19.3175C0.181397 18.9946 0 18.5567 0 18.1C0 17.6434 0.181397 17.2055 0.504286 16.8826C0.827174 16.5597 1.26511 16.3783 1.72174 16.3783H5.47826C5.93489 16.3783 6.37283 16.5597 6.69571 16.8826C7.0186 17.2055 7.2 17.6434 7.2 18.1C7.2 18.5567 7.0186 18.9946 6.69571 19.3175C6.37283 19.6404 5.93489 19.8218 5.47826 19.8218Z" fill="#FFD60B"/>
<path d="M29.5105 31.3324C29.2842 31.3326 29.0602 31.2881 28.8512 31.2015C28.6422 31.1149 28.4524 30.9878 28.2927 30.8276L25.6365 28.1714C25.3207 27.8471 25.1452 27.4114 25.1482 26.9588C25.1512 26.5061 25.3324 26.0727 25.6525 25.7526C25.9726 25.4325 26.4059 25.2514 26.8586 25.2484C27.3113 25.2454 27.7469 25.4208 28.0712 25.7367L30.7274 28.3929C30.9683 28.6336 31.1323 28.9404 31.1988 29.2744C31.2653 29.6084 31.2313 29.9546 31.101 30.2692C30.9708 30.5839 30.7501 30.8528 30.467 31.0421C30.1839 31.2313 29.851 31.3323 29.5105 31.3324Z" fill="#FFD60B"/>
<path d="M9.14542 10.9673C8.91935 10.9678 8.69543 10.9235 8.48657 10.837C8.2777 10.7505 8.08803 10.6235 7.92847 10.4633L5.27229 7.80715C4.95643 7.48285 4.78099 7.04719 4.78397 6.5945C4.78695 6.1418 4.96811 5.70849 5.28822 5.38838C5.60833 5.06827 6.04164 4.88711 6.49434 4.88413C6.94703 4.88115 7.38269 5.05658 7.70699 5.37245L10.3632 8.02863C10.6038 8.26946 10.7676 8.57623 10.834 8.91015C10.9003 9.24408 10.8661 9.59017 10.7358 9.90469C10.6055 10.2192 10.3848 10.488 10.1017 10.6772C9.81867 10.8663 9.48587 10.9673 9.14542 10.9673Z" fill="#FFD60B"/>
<path d="M17.9999 26.0827C16.4211 26.0827 14.8778 25.6145 13.565 24.7373C12.2523 23.8602 11.2292 22.6135 10.625 21.1549C10.0208 19.6962 9.86271 18.0912 10.1707 16.5427C10.4787 14.9942 11.239 13.5719 12.3554 12.4555C13.4718 11.3391 14.8941 10.5788 16.4426 10.2708C17.9911 9.96281 19.5961 10.1209 21.0548 10.7251C22.5134 11.3293 23.7601 12.3524 24.6372 13.6651C25.5144 14.9779 25.9826 16.5212 25.9826 18.1C25.9801 20.2164 25.1382 22.2454 23.6418 23.7419C22.1453 25.2383 20.1163 26.0802 17.9999 26.0827Z" fill="#FFD60B"/>
</svg>
