<svg width="22" height="19" viewBox="0 0 22 19" fill="none" xmlns="http://www.w3.org/2000/svg">
<path d="M5.72727 9.75525C5.72727 9.53825 5.81347 9.33015 5.96691 9.17671C6.12035 9.02327 6.32846 8.93707 6.54545 8.93707H13.9091V3.61889C13.9091 1.98252 12.1812 0.755249 10.6364 0.755249H2.86364C2.1044 0.756061 1.3765 1.05803 0.839637 1.59489C0.302777 2.13175 0.000812161 2.85965 0 3.61889V15.8916C0.000812161 16.6508 0.302777 17.3788 0.839637 17.9156C1.3765 18.4525 2.1044 18.7544 2.86364 18.7552H11.0455C11.8047 18.7544 12.5326 18.4525 13.0695 17.9156C13.6063 17.3788 13.9083 16.6508 13.9091 15.8916V10.5734H6.54545C6.32846 10.5734 6.12035 10.4872 5.96691 10.3338C5.81347 10.1804 5.72727 9.97224 5.72727 9.75525ZM21.0329 9.1769L16.942 5.08599C16.7873 4.93903 16.5813 4.85831 16.368 4.86104C16.1546 4.86377 15.9508 4.94974 15.7999 5.10061C15.649 5.25148 15.5631 5.45533 15.5603 5.66868C15.5576 5.88203 15.6383 6.08801 15.7853 6.24269L18.4791 8.93707H13.9091V10.5734H18.4791L15.7853 13.2678C15.7061 13.343 15.6428 13.4333 15.5991 13.5334C15.5554 13.6335 15.5321 13.7413 15.5307 13.8505C15.5293 13.9597 15.5498 14.0681 15.5909 14.1692C15.6321 14.2704 15.6931 14.3623 15.7703 14.4395C15.8475 14.5167 15.9394 14.5777 16.0406 14.6189C16.1417 14.66 16.2501 14.6805 16.3593 14.6791C16.4685 14.6777 16.5763 14.6544 16.6764 14.6107C16.7765 14.567 16.8668 14.5037 16.942 14.4245L21.0329 10.3336C21.1862 10.1802 21.2723 9.97215 21.2723 9.75525C21.2723 9.53835 21.1862 9.33032 21.0329 9.1769Z" fill="#DCDCDC"/>
</svg>
