<svg width="48" height="48" viewBox="0 0 48 48" fill="none" xmlns="http://www.w3.org/2000/svg">
<path d="M24 0C10.7665 0 0 10.7665 0 24C0 37.2335 10.7665 48 24 48C37.2335 48 48 37.2335 48 24C48 10.7665 37.2335 0 24 0ZM18.2054 13.4792C19.6673 11.9296 21.7246 11.0769 24 11.0769C26.2754 11.0769 28.3142 11.9354 29.7819 13.4931C31.2692 15.0715 31.9927 17.1923 31.8219 19.4723C31.4804 24 27.9727 27.6923 24 27.6923C20.0273 27.6923 16.5127 24 16.1781 19.4712C16.0085 17.1727 16.7308 15.045 18.2054 13.4792ZM24 44.3077C21.289 44.3095 18.6052 43.7669 16.1079 42.712C13.6105 41.6572 11.3504 40.1116 9.46154 38.1669C10.5433 36.6242 11.9217 35.3125 13.5162 34.3085C16.4573 32.4231 20.1796 31.3846 24 31.3846C27.8204 31.3846 31.5427 32.4231 34.4804 34.3085C36.0761 35.312 37.4557 36.6238 38.5385 38.1669C36.6498 40.1118 34.3897 41.6575 31.8923 42.7124C29.3949 43.7673 26.711 44.3097 24 44.3077Z" fill="#6F6A6C"/>
</svg>
