<svg width="36" height="37" viewBox="0 0 36 37" fill="none" xmlns="http://www.w3.org/2000/svg">
<mask id="mask0_21_1114" style="mask-type:alpha" maskUnits="userSpaceOnUse" x="0" y="0" width="36" height="37">
<path d="M33.0195 10.1527C31.7618 8.89791 30.0818 8.02191 28.1318 7.60267C27.949 7.56332 27.7779 7.4818 27.6322 7.36461C27.4865 7.24741 27.3702 7.09779 27.2926 6.92767C26.5755 5.36146 25.4898 3.9922 24.1283 2.93692C22.3861 1.60417 20.2673 0.899925 18.0001 0.899925C15.4166 0.891724 12.9204 1.83466 10.9876 3.54892C9.17258 5.16592 7.91934 7.39942 7.35534 9.98616C7.3083 10.2051 7.20112 10.4066 7.04584 10.568C6.89055 10.7294 6.69333 10.8442 6.47634 10.8997C4.60134 11.3722 3.79809 11.8402 2.78559 12.7417C1.3501 14.0197 0.600098 15.7604 0.600098 17.7599C0.600098 20.0511 1.44235 21.9329 3.03534 23.2019C4.43109 24.3126 6.33759 24.8999 8.55009 24.8999H26.1001C28.5901 24.8999 30.9083 24.0404 32.625 22.4789C34.413 20.8551 35.4 18.6036 35.4 16.1399C35.4 13.7782 34.575 11.7082 33.0195 10.1527ZM7.20009 33.2999C6.98291 33.2997 6.76984 33.2407 6.5836 33.129C6.39735 33.0173 6.24491 32.8571 6.14253 32.6656C6.04014 32.4741 5.99166 32.2584 6.00223 32.0414C6.01281 31.8245 6.08206 31.6145 6.20259 31.4339L8.60258 27.8339C8.69005 27.7028 8.80247 27.5902 8.93344 27.5026C9.06441 27.4149 9.21136 27.3539 9.3659 27.3231C9.52044 27.2922 9.67954 27.2921 9.83412 27.3228C9.98871 27.3534 10.1357 27.4142 10.2668 27.5016C10.3979 27.5891 10.5105 27.7015 10.5982 27.8325C10.6858 27.9635 10.7468 28.1104 10.7776 28.2649C10.8085 28.4195 10.8086 28.5786 10.778 28.7332C10.7473 28.8878 10.6865 29.0348 10.5991 29.1659L8.19909 32.7659C8.08941 32.9303 7.94084 33.065 7.76656 33.1582C7.59228 33.2513 7.3977 33.3 7.20009 33.2999ZM10.8001 36.8999C10.583 36.8996 10.37 36.8404 10.1839 36.7287C9.99772 36.6169 9.84539 36.4568 9.74309 36.2653C9.6408 36.0738 9.59238 35.8581 9.60299 35.6412C9.6136 35.4244 9.68284 35.2145 9.80333 35.0339L14.6033 27.8339C14.6908 27.7028 14.8032 27.5902 14.9342 27.5026C15.0651 27.4149 15.2121 27.3539 15.3666 27.3231C15.5212 27.2922 15.6803 27.2921 15.8349 27.3228C15.9894 27.3534 16.1365 27.4142 16.2676 27.5016C16.3987 27.5891 16.5112 27.7015 16.5989 27.8325C16.6865 27.9635 16.7475 28.1104 16.7784 28.2649C16.8092 28.4195 16.8093 28.5786 16.7787 28.7332C16.7481 28.8878 16.6873 29.0348 16.5998 29.1659L11.7998 36.3659C11.6901 36.5304 11.5414 36.6652 11.367 36.7583C11.1926 36.8515 10.9978 36.9001 10.8001 36.8999ZM19.2001 33.2999C18.9829 33.2997 18.7698 33.2407 18.5836 33.129C18.3973 33.0173 18.2449 32.8571 18.1425 32.6656C18.0401 32.4741 17.9916 32.2584 18.0022 32.0414C18.0128 31.8245 18.082 31.6145 18.2026 31.4339L20.6026 27.8339C20.7792 27.5691 21.0538 27.3854 21.3659 27.3231C21.678 27.2608 22.0021 27.325 22.2668 27.5016C22.5316 27.6783 22.7153 27.9528 22.7776 28.2649C22.8399 28.5771 22.7757 28.9011 22.5991 29.1659L20.1991 32.7659C20.0894 32.9303 19.9408 33.065 19.7665 33.1582C19.5923 33.2513 19.3977 33.3 19.2001 33.2999ZM22.8001 36.8999C22.5829 36.8997 22.3698 36.8407 22.1836 36.729C21.9973 36.6173 21.8449 36.4571 21.7425 36.2656C21.6401 36.0741 21.5916 35.8583 21.6022 35.6414C21.6128 35.4245 21.682 35.2145 21.8026 35.0339L26.6026 27.8339C26.7792 27.5691 27.0538 27.3854 27.3659 27.3231C27.678 27.2608 28.0021 27.325 28.2668 27.5016C28.5316 27.6783 28.7153 27.9528 28.7776 28.2649C28.8399 28.5771 28.7757 28.9011 28.5991 29.1659L23.7991 36.3659C23.6894 36.5303 23.5408 36.665 23.3665 36.7582C23.1923 36.8513 22.9977 36.9 22.8001 36.8999Z" fill="black"/>
</mask>
<g mask="url(#mask0_21_1114)">
<rect x="6" y="26.8999" width="23" height="10" fill="#55C1E9"/>
</g>
<path d="M26.4375 24.4254H8.15625C5.88023 24.4254 3.92133 23.8605 2.48977 22.7926C0.860625 21.5765 0 19.771 0 17.57C0 13.7751 2.95312 11.5991 6.15656 10.9287C6.36728 10.8837 6.55971 10.7828 6.71083 10.6379C6.86196 10.4931 6.96539 10.3105 7.00875 10.112C7.54875 7.69413 8.72789 5.61969 10.4667 4.04755C12.4906 2.22351 15.1926 1.21014 18 1.22231C20.4961 1.22231 22.7981 1.99289 24.6572 3.45033C25.928 4.45522 26.9389 5.71739 27.6138 7.14174C27.6864 7.29463 27.7968 7.42913 27.9358 7.53412C28.0748 7.63911 28.2385 7.71159 28.4133 7.74555C30.3117 8.11535 32.0041 8.88791 33.2775 9.97687C35.0585 11.4976 36 13.5767 36 15.9879C36 18.361 34.9889 20.5284 33.153 22.0913C31.3847 23.5968 28.9997 24.4254 26.4375 24.4254Z" fill="#D9D9D9"/>
</svg>
