<svg width="36" height="37" viewBox="0 0 36 37" fill="none" xmlns="http://www.w3.org/2000/svg">
<mask id="mask0_21_1051" style="mask-type:alpha" maskUnits="userSpaceOnUse" x="0" y="0" width="36" height="37">
<path d="M33.0195 9.95274C31.7618 8.69799 30.0818 7.82199 28.1318 7.40275C27.949 7.3634 27.7779 7.28188 27.6322 7.16469C27.4865 7.04749 27.3702 6.89787 27.2926 6.72775C26.5755 5.16154 25.4898 3.79228 24.1283 2.737C22.3861 1.40425 20.2673 0.700004 18.0001 0.700004C15.4166 0.691803 12.9204 1.63474 10.9876 3.349C9.17258 4.966 7.91934 7.19949 7.35534 9.78624C7.3083 10.0052 7.20112 10.2067 7.04584 10.3681C6.89055 10.5295 6.69333 10.6443 6.47634 10.6997C4.60134 11.1722 3.79809 11.6402 2.78559 12.5417C1.3501 13.8197 0.600098 15.5605 0.600098 17.56C0.600098 19.8512 1.44235 21.733 3.03534 23.002C4.43109 24.1127 6.33759 24.7 8.55009 24.7H26.1001C28.5901 24.7 30.9083 23.8405 32.625 22.279C34.413 20.6552 35.4 18.4037 35.4 15.94C35.4 13.5782 34.575 11.5082 33.0195 9.95274ZM7.20009 33.1C6.98291 33.0998 6.76984 33.0408 6.5836 32.9291C6.39735 32.8174 6.24491 32.6572 6.14253 32.4657C6.04014 32.2742 5.99166 32.0584 6.00223 31.8415C6.01281 31.6246 6.08206 31.4146 6.20259 31.234L8.60258 27.634C8.69005 27.5029 8.80247 27.3903 8.93344 27.3026C9.06441 27.215 9.21136 27.154 9.3659 27.1232C9.52044 27.0923 9.67954 27.0922 9.83412 27.1228C9.98871 27.1535 10.1357 27.2143 10.2668 27.3017C10.3979 27.3892 10.5105 27.5016 10.5982 27.6326C10.6858 27.7635 10.7468 27.9105 10.7776 28.065C10.8085 28.2196 10.8086 28.3787 10.778 28.5333C10.7473 28.6878 10.6865 28.8349 10.5991 28.966L8.19909 32.566C8.08941 32.7303 7.94084 32.8651 7.76656 32.9583C7.59228 33.0514 7.3977 33.1001 7.20009 33.1ZM10.8001 36.7C10.583 36.6997 10.37 36.6405 10.1839 36.5288C9.99772 36.417 9.84539 36.2568 9.74309 36.0653C9.6408 35.8738 9.59238 35.6582 9.60299 35.4413C9.6136 35.2245 9.68284 35.0146 9.80333 34.834L14.6033 27.634C14.6908 27.5029 14.8032 27.3903 14.9342 27.3026C15.0651 27.215 15.2121 27.154 15.3666 27.1232C15.5212 27.0923 15.6803 27.0922 15.8349 27.1228C15.9894 27.1535 16.1365 27.2143 16.2676 27.3017C16.3987 27.3892 16.5112 27.5016 16.5989 27.6326C16.6865 27.7635 16.7475 27.9105 16.7784 28.065C16.8092 28.2196 16.8093 28.3787 16.7787 28.5333C16.7481 28.6878 16.6873 28.8349 16.5998 28.966L11.7998 36.166C11.6901 36.3304 11.5414 36.4653 11.367 36.5584C11.1926 36.6516 10.9978 36.7002 10.8001 36.7ZM19.2001 33.1C18.9829 33.0998 18.7698 33.0408 18.5836 32.9291C18.3973 32.8174 18.2449 32.6572 18.1425 32.4657C18.0401 32.2742 17.9916 32.0584 18.0022 31.8415C18.0128 31.6246 18.082 31.4146 18.2026 31.234L20.6026 27.634C20.7792 27.3692 21.0538 27.1855 21.3659 27.1232C21.678 27.0609 22.0021 27.1251 22.2668 27.3017C22.5316 27.4783 22.7153 27.7529 22.7776 28.065C22.8399 28.3771 22.7757 28.7012 22.5991 28.966L20.1991 32.566C20.0894 32.7303 19.9408 32.8651 19.7665 32.9583C19.5923 33.0514 19.3977 33.1001 19.2001 33.1ZM22.8001 36.7C22.5829 36.6998 22.3698 36.6408 22.1836 36.5291C21.9973 36.4174 21.8449 36.2572 21.7425 36.0657C21.6401 35.8741 21.5916 35.6584 21.6022 35.4415C21.6128 35.2246 21.682 35.0146 21.8026 34.834L26.6026 27.634C26.7792 27.3692 27.0538 27.1855 27.3659 27.1232C27.678 27.0609 28.0021 27.1251 28.2668 27.3017C28.5316 27.4783 28.7153 27.7529 28.7776 28.065C28.8399 28.3771 28.7757 28.7012 28.5991 28.966L23.7991 36.166C23.6894 36.3303 23.5408 36.4651 23.3665 36.5582C23.1923 36.6514 22.9977 36.7001 22.8001 36.7Z" fill="black"/>
</mask>
<g mask="url(#mask0_21_1051)">
<rect x="6" y="26.7" width="23" height="10" fill="#55C1E9"/>
</g>
<path d="M26.4375 24.2255H8.15625C5.88023 24.2255 3.92133 23.6606 2.48977 22.5927C0.860625 21.3765 0 19.571 0 17.37C0 13.5751 2.95312 11.3992 6.15656 10.7288C6.36728 10.6838 6.55971 10.5828 6.71083 10.438C6.86196 10.2932 6.96539 10.1106 7.00875 9.91208C7.54875 7.49421 8.72789 5.41977 10.4667 3.84763C12.4906 2.02359 15.1926 1.01022 18 1.02239C20.4961 1.02239 22.7981 1.79297 24.6572 3.25041C25.928 4.2553 26.9389 5.51747 27.6138 6.94182C27.6864 7.09471 27.7968 7.22921 27.9358 7.3342C28.0748 7.43919 28.2385 7.51167 28.4133 7.54563C30.3117 7.91543 32.0041 8.68799 33.2775 9.77695C35.0585 11.2977 36 13.3767 36 15.788C36 18.1611 34.9889 20.3284 33.153 21.8914C31.3847 23.3969 28.9997 24.2255 26.4375 24.2255Z" fill="#D9D9D9"/>
</svg>
