<svg width="40" height="37" viewBox="0 0 40 37" fill="none" xmlns="http://www.w3.org/2000/svg">
<path d="M16.6606 19.8545C17.8974 16.3939 21.033 13.8985 24.707 13.4802C23.5066 10.0644 20.2546 7.62122 16.4303 7.62122C11.585 7.62122 7.65283 11.5474 7.65283 16.3939C7.65283 18.7049 8.54766 20.8062 10.01 22.3753C11.6918 20.8111 13.947 19.8496 16.4255 19.8496C16.503 19.8496 16.5781 19.8545 16.6606 19.8545Z" fill="#FFD60B"/>
<path d="M17.7072 0.0999756H15.1511V5.0204H17.7072V0.0999756Z" fill="#FFD60B"/>
<path d="M9.28956 7.44786L5.81082 3.96912L4.00293 5.77584L7.48175 9.25575L9.28956 7.44786Z" fill="#FFD60B"/>
<path d="M5.05422 15.1172H0.133789V17.6732H5.05422V15.1172Z" fill="#FFD60B"/>
<path d="M4.00293 27.0121L5.80842 28.8224L7.1725 27.4571C7.38715 26.3622 7.79091 25.3351 8.35353 24.41L7.47926 23.5357L4.00293 27.0121Z" fill="#FFD60B"/>
<path d="M28.8562 5.77585L27.0472 3.96796L23.5696 7.44786L25.3762 9.25575L28.8562 5.77585Z" fill="#FFD60B"/>
<path d="M32.9266 21.8516C32.2101 18.528 29.2576 16.0375 25.7206 16.0375C22.146 16.0375 19.1681 18.5789 18.4915 21.9546C18.0914 21.8855 17.6815 21.8419 17.262 21.8419C13.3237 21.8419 10.1323 25.0332 10.1323 28.9703C10.1323 32.9086 13.3237 36.1 17.262 36.1C20.6267 36.1 29.4261 36.1 32.7363 36.1C36.6746 36.1 39.866 32.9086 39.866 28.9703C39.866 25.0963 36.7765 21.9522 32.9266 21.8516Z" fill="#D9D9D9"/>
</svg>
