<svg width="40" height="37" viewBox="0 0 40 37" fill="none" xmlns="http://www.w3.org/2000/svg">
<path d="M16.6606 20.0544C17.8974 16.5939 21.033 14.0985 24.707 13.6801C23.5066 10.2644 20.2546 7.8212 16.4303 7.8212C11.585 7.8212 7.65283 11.7474 7.65283 16.5939C7.65283 18.9049 8.54766 21.0062 10.01 22.5753C11.6918 21.0111 13.947 20.0496 16.4255 20.0496C16.503 20.0496 16.5781 20.0544 16.6606 20.0544Z" fill="#FFD60B"/>
<path d="M17.7072 0.299927H15.1511V5.22035H17.7072V0.299927Z" fill="#FFD60B"/>
<path d="M9.28956 7.64781L5.81082 4.16907L4.00293 5.9758L7.48175 9.4557L9.28956 7.64781Z" fill="#FFD60B"/>
<path d="M5.05422 15.3171H0.133789V17.8732H5.05422V15.3171Z" fill="#FFD60B"/>
<path d="M4.00293 27.212L5.80842 29.0223L7.1725 27.657C7.38715 26.5621 7.79091 25.5351 8.35353 24.6099L7.47926 23.7356L4.00293 27.212Z" fill="#FFD60B"/>
<path d="M28.8562 5.9758L27.0472 4.16791L23.5696 7.64781L25.3762 9.4557L28.8562 5.9758Z" fill="#FFD60B"/>
<path d="M32.9266 22.0515C32.2101 18.728 29.2576 16.2374 25.7206 16.2374C22.146 16.2374 19.1681 18.7789 18.4915 22.1546C18.0914 22.0854 17.6815 22.0418 17.262 22.0418C13.3237 22.0418 10.1323 25.2332 10.1323 29.1703C10.1323 33.1086 13.3237 36.2999 17.262 36.2999C20.6267 36.2999 29.4261 36.2999 32.7363 36.2999C36.6746 36.2999 39.866 33.1086 39.866 29.1703C39.866 25.2962 36.7765 22.1522 32.9266 22.0515Z" fill="#D9D9D9"/>
</svg>
