<svg width="36" height="37" viewBox="0 0 36 37" fill="none" xmlns="http://www.w3.org/2000/svg">
<path d="M6.01567 30.5014C5.81111 30.5013 5.60999 30.4489 5.43137 30.3492C5.25276 30.2495 5.1026 30.1058 4.99513 29.9318C4.88767 29.7578 4.82647 29.5591 4.81736 29.3548C4.80824 29.1504 4.8515 28.9471 4.94304 28.7642L6.74325 25.1638C6.88569 24.8791 7.13538 24.6627 7.4374 24.5621C7.73942 24.4615 8.06902 24.485 8.35369 24.6275C8.63837 24.7699 8.85481 25.0196 8.95539 25.3216C9.05596 25.6236 9.03245 25.9532 8.89001 26.2379L7.08979 29.8383C6.99002 30.0377 6.83667 30.2054 6.64695 30.3225C6.45722 30.4396 6.23863 30.5016 6.01567 30.5014ZM7.81588 35.302C7.61133 35.3019 7.4102 35.2495 7.23159 35.1498C7.05298 35.0501 6.90281 34.9064 6.79535 34.7324C6.68788 34.5583 6.62669 34.3597 6.61757 34.1554C6.60845 33.951 6.65172 33.7477 6.74325 33.5648L7.9434 31.1645C8.08583 30.8798 8.33553 30.6634 8.63754 30.5628C8.78709 30.513 8.94497 30.4932 9.10219 30.5044C9.25941 30.5156 9.41288 30.5577 9.55384 30.6282C9.6948 30.6987 9.82048 30.7963 9.92372 30.9154C10.027 31.0345 10.1057 31.1728 10.1555 31.3223C10.2053 31.4719 10.2252 31.6298 10.214 31.787C10.2028 31.9442 10.1607 32.0977 10.0902 32.2386L8.89001 34.6389C8.79023 34.8383 8.63689 35.006 8.44716 35.1231C8.25744 35.2402 8.03884 35.3022 7.81588 35.302ZM27.0182 30.5014C26.8136 30.5013 26.6125 30.4489 26.4339 30.3492C26.2553 30.2495 26.1051 30.1058 25.9976 29.9318C25.8902 29.7578 25.829 29.5591 25.8199 29.3548C25.8107 29.1504 25.854 28.9471 25.9455 28.7642L27.7458 25.1638C27.8882 24.8791 28.1379 24.6627 28.4399 24.5621C28.7419 24.4615 29.0715 24.485 29.3562 24.6275C29.6409 24.7699 29.8573 25.0196 29.9579 25.3216C30.0585 25.6236 30.035 25.9532 29.8925 26.2379L28.0923 29.8383C27.9925 30.0377 27.8392 30.2054 27.6495 30.3225C27.4597 30.4396 27.2411 30.5016 27.0182 30.5014ZM28.8184 35.302C28.6138 35.3019 28.4127 35.2495 28.2341 35.1498C28.0555 35.0501 27.9053 34.9064 27.7979 34.7324C27.6904 34.5583 27.6292 34.3597 27.6201 34.1554C27.611 33.951 27.6542 33.7477 27.7458 33.5648L28.9459 31.1645C29.0883 30.8798 29.338 30.6634 29.6401 30.5628C29.9421 30.4622 30.2717 30.4858 30.5563 30.6282C30.841 30.7706 31.0575 31.0203 31.158 31.3223C31.2586 31.6244 31.2351 31.954 31.0927 32.2386L29.8925 34.6389C29.7927 34.8383 29.6394 35.006 29.4497 35.1231C29.26 35.2402 29.0414 35.3022 28.8184 35.302Z" fill="#55C1E9"/>
<mask id="mask0_21_1078" style="mask-type:alpha" maskUnits="userSpaceOnUse" x="12" y="22" width="13" height="15">
<rect x="12.0159" y="22.5" width="12" height="14" fill="#FFD60B"/>
</mask>
<g mask="url(#mask0_21_1078)">
<path d="M29.2574 9.56633C28.7557 7.1891 27.5042 5.03571 25.6869 3.4231C24.3392 2.21738 22.7255 1.34723 20.9776 0.883592C19.2296 0.419953 17.3969 0.375947 15.6287 0.755162C13.8605 1.13438 12.2069 1.92608 10.8028 3.06572C9.39875 4.20537 8.28384 5.6607 7.54902 7.31306C3.35377 7.56059 0.0158691 11.0478 0.0158691 15.2993C0.0158691 19.7113 3.60955 23.3005 8.02683 23.3005H13.0007L12.0338 29.1039C12.0052 29.2758 12.0143 29.4519 12.0606 29.6199C12.1069 29.788 12.1892 29.9439 12.3018 30.0769C12.4145 30.2099 12.5547 30.3167 12.7129 30.39C12.871 30.4633 13.0432 30.5013 13.2174 30.5013H15.6177V35.3019C15.6182 35.5558 15.6991 35.803 15.8489 36.008C15.9987 36.2129 16.2096 36.3651 16.4514 36.4427C16.6931 36.5202 16.9533 36.5191 17.1943 36.4394C17.4354 36.3598 17.645 36.2058 17.793 35.9995L23.7937 27.5985C23.9218 27.4192 23.9981 27.208 24.0141 26.9882C24.0301 26.7684 23.9853 26.5484 23.8846 26.3524C23.7839 26.1564 23.6311 25.9919 23.4431 25.8769C23.255 25.762 23.039 25.701 22.8186 25.7008H20.7551L21.3552 23.3005H29.1441C30.951 23.2932 32.6822 22.5742 33.9625 21.2992C35.2429 20.0243 35.9692 18.2962 35.9841 16.4893C35.999 14.6825 35.3013 12.9426 34.0421 11.6468C32.783 10.3509 31.0639 9.60339 29.2574 9.56633Z" fill="#FFD60B"/>
</g>
<mask id="mask1_21_1078" style="mask-type:alpha" maskUnits="userSpaceOnUse" x="0" y="0" width="36" height="37">
<path d="M29.2574 9.56633C28.7557 7.1891 27.5042 5.03571 25.6869 3.4231C24.3392 2.21738 22.7255 1.34723 20.9776 0.883592C19.2296 0.419953 17.3969 0.375947 15.6287 0.755162C13.8605 1.13438 12.2069 1.92608 10.8028 3.06572C9.39875 4.20537 8.28384 5.6607 7.54902 7.31306C3.35377 7.56059 0.0158691 11.0478 0.0158691 15.2993C0.0158691 19.7113 3.60955 23.3005 8.02683 23.3005H13.0007L12.0338 29.1039C12.0052 29.2758 12.0143 29.4519 12.0606 29.6199C12.1069 29.788 12.1892 29.9439 12.3018 30.0769C12.4145 30.2099 12.5547 30.3167 12.7129 30.39C12.871 30.4633 13.0432 30.5013 13.2174 30.5013H15.6177V35.3019C15.6182 35.5558 15.6991 35.803 15.8489 36.008C15.9987 36.2129 16.2096 36.3651 16.4514 36.4427C16.6931 36.5202 16.9533 36.5191 17.1943 36.4394C17.4354 36.3598 17.645 36.2058 17.793 35.9995L23.7937 27.5985C23.9218 27.4192 23.9981 27.208 24.0141 26.9882C24.0301 26.7684 23.9853 26.5484 23.8846 26.3524C23.7839 26.1564 23.6311 25.9919 23.4431 25.8769C23.255 25.762 23.039 25.701 22.8186 25.7008H20.7551L21.3552 23.3005H29.1441C30.951 23.2932 32.6822 22.5742 33.9625 21.2992C35.2429 20.0243 35.9692 18.2962 35.9841 16.4893C35.999 14.6825 35.3013 12.9426 34.0421 11.6468C32.783 10.3509 31.0639 9.60339 29.2574 9.56633Z" fill="#D9D9D9"/>
</mask>
<g mask="url(#mask1_21_1078)">
<rect x="0.0158691" y="0.5" width="36" height="23" fill="#D9D9D9"/>
</g>
</svg>
