<svg width="14" height="14" viewBox="0 0 14 14" fill="none" xmlns="http://www.w3.org/2000/svg">
<path fill-rule="evenodd" clip-rule="evenodd" d="M3.5 0.5C3.5 0.223858 3.27614 0 3 0C2.72386 0 2.5 0.223858 2.5 0.5V0.999999H2C0.895431 0.999999 0 1.89543 0 3V4V12C0 13.1046 0.895431 14 2 14H12C13.1046 14 14 13.1046 14 12V4V3C14 1.89543 13.1046 0.999999 12 0.999999H11.5V0.5C11.5 0.223858 11.2761 0 11 0C10.7239 0 10.5 0.223858 10.5 0.5V0.999999H3.5V0.5ZM13 3.5V3C13 2.44771 12.5523 2 12 2H11.0009L11 2L10.9991 2H3.00086L3 2L2.99915 2H2C1.44772 2 1 2.44771 1 3V3.5H13ZM1 4.5H13V12C13 12.5523 12.5523 13 12 13H2C1.44772 13 1 12.5523 1 12V4.5ZM3 6.5V8.5H5V6.5H3ZM2 6.40625C2 5.90574 2.40574 5.5 2.90625 5.5H5.09375C5.59426 5.5 6 5.90574 6 6.40625V8.59375C6 9.09426 5.59426 9.5 5.09375 9.5H2.90625C2.40574 9.5 2 9.09426 2 8.59375V6.40625Z" fill="black"/>
</svg>
