<svg width="16" height="17" viewBox="0 0 16 17" fill="none" xmlns="http://www.w3.org/2000/svg">
<path d="M7.59032 9.14817V14.6289C7.59032 14.9197 7.47799 15.1985 7.27804 15.404C7.0781 15.6096 6.80692 15.7251 6.52416 15.7251C6.24139 15.7251 5.97021 15.6096 5.77027 15.404C5.57032 15.1985 5.458 14.9197 5.458 14.6289M7.59032 9.14817L7.26747 8.89914C6.76526 8.51195 6.14407 8.32397 5.51792 8.36972C4.89177 8.41546 4.30267 8.69186 3.85876 9.14817C3.64875 8.93224 3.39942 8.76095 3.12503 8.64409C2.85063 8.52723 2.55653 8.46708 2.25952 8.46708C1.96251 8.46708 1.66841 8.52723 1.39401 8.64409C1.11961 8.76095 0.870288 8.93224 0.660278 9.14817C0.660278 5.21298 3.7628 2.02317 7.59032 2.02317M7.59032 9.14817L7.91316 8.89914C8.41537 8.51195 9.03656 8.32397 9.66271 8.36972C10.2889 8.41546 10.878 8.69186 11.3219 9.14817C11.5319 8.93224 11.7812 8.76095 12.0556 8.64409C12.33 8.52723 12.6241 8.46708 12.9211 8.46708C13.2181 8.46708 13.5122 8.52723 13.7866 8.64409C14.061 8.76095 14.3103 8.93224 14.5204 9.14817C14.5204 5.21298 11.4178 2.02317 7.59032 2.02317M7.59032 2.02317V1.4751" stroke="white" stroke-width="1.09615" stroke-linecap="round" stroke-linejoin="round"/>
</svg>
