<svg width="18" height="19" viewBox="0 0 18 19" fill="none" xmlns="http://www.w3.org/2000/svg">
<path d="M17.1544 11.4261L17.136 11.4111L15.9011 10.4359C15.8229 10.3736 15.7604 10.2935 15.7189 10.2022C15.6775 10.1109 15.6581 10.011 15.6624 9.91063V9.45512C15.6584 9.35543 15.6781 9.25624 15.7196 9.16568C15.7612 9.07512 15.8235 8.99578 15.9015 8.9342L17.136 7.95855L17.1544 7.94358C17.3448 7.78386 17.4726 7.56115 17.5149 7.31527C17.5572 7.06939 17.5112 6.81638 17.3853 6.60148L15.714 3.68951C15.7121 3.68677 15.7104 3.68387 15.7089 3.68085C15.5823 3.46892 15.386 3.30834 15.154 3.227C14.922 3.14566 14.6691 3.1487 14.4391 3.23558L14.4255 3.2407L12.9737 3.829C12.8821 3.86631 12.783 3.88116 12.6845 3.87232C12.5861 3.86348 12.4911 3.83121 12.4075 3.77817C12.2791 3.69674 12.1487 3.61977 12.0162 3.54727C11.9303 3.50035 11.8565 3.43375 11.8008 3.35285C11.7452 3.27194 11.7092 3.179 11.6957 3.08151L11.477 1.5215L11.4723 1.49313C11.4247 1.2515 11.2959 1.03375 11.1076 0.876456C10.9194 0.719163 10.6831 0.631922 10.4385 0.629395H7.09202C6.84396 0.630194 6.60413 0.719124 6.4148 0.880518C6.22546 1.04191 6.09876 1.26542 6.05702 1.51165L6.0535 1.53372L5.83554 3.09688C5.82217 3.19409 5.78645 3.28681 5.73122 3.36767C5.67599 3.44853 5.60278 3.51529 5.51741 3.56263C5.3845 3.63472 5.254 3.7112 5.12611 3.79197C5.04263 3.84468 4.94792 3.8767 4.84976 3.8854C4.7516 3.8941 4.6528 3.87923 4.56145 3.84201L3.10854 3.25095L3.09485 3.24543C2.86455 3.15845 2.61126 3.15553 2.37904 3.23718C2.14683 3.31882 1.95038 3.47986 1.82389 3.69227L1.8188 3.70094L0.145193 6.61487C0.0190481 6.82999 -0.0269927 7.08329 0.0153038 7.32946C0.0576002 7.57562 0.185476 7.79861 0.376063 7.95855L0.394454 7.97353L1.62941 8.94878C1.70762 9.01108 1.77003 9.09117 1.81152 9.18248C1.85302 9.27379 1.87241 9.37371 1.86811 9.47403V9.92954C1.87202 10.0292 1.8524 10.1284 1.81083 10.219C1.76927 10.3095 1.70696 10.3889 1.62902 10.4505L0.394454 11.4261L0.376063 11.4411C0.185664 11.6008 0.0578928 11.8235 0.0155965 12.0694C-0.0266998 12.3153 0.0192371 12.5683 0.145193 12.7832L1.81645 15.6951C1.81838 15.6979 1.82008 15.7008 1.82154 15.7038C1.94818 15.9157 2.14452 16.0763 2.37648 16.1577C2.60843 16.239 2.86136 16.236 3.09132 16.1491L3.10502 16.144L4.55558 15.5557C4.64721 15.5183 4.74633 15.5035 4.84478 15.5123C4.94322 15.5212 5.03817 15.5534 5.1218 15.6065C5.25015 15.6882 5.38058 15.7652 5.51311 15.8374C5.59903 15.8843 5.6728 15.9509 5.72847 16.0318C5.78413 16.1127 5.82014 16.2057 5.83358 16.3032L6.05115 17.8632L6.05584 17.8915C6.10355 18.1335 6.23265 18.3516 6.4214 18.5089C6.61015 18.6663 6.847 18.7533 7.09202 18.7553H10.4385C10.6865 18.7545 10.9263 18.6655 11.1157 18.5041C11.305 18.3427 11.4317 18.1192 11.4735 17.873L11.477 17.8509L11.6949 16.2878C11.7085 16.1904 11.7445 16.0975 11.8001 16.0167C11.8557 15.9358 11.9293 15.8691 12.015 15.822C12.1488 15.7495 12.2795 15.6727 12.4063 15.5927C12.4898 15.54 12.5845 15.508 12.6827 15.4993C12.7808 15.4906 12.8796 15.5054 12.971 15.5427L14.4239 16.1317L14.4376 16.1373C14.6679 16.2244 14.9212 16.2274 15.1535 16.1457C15.3857 16.0641 15.5822 15.903 15.7085 15.6904C15.7101 15.6874 15.7118 15.6846 15.7136 15.6818L17.3849 12.7702C17.5113 12.5551 17.5575 12.3017 17.5152 12.0554C17.473 11.8092 17.3451 11.5861 17.1544 11.4261ZM11.8921 9.84049C11.8637 10.4507 11.6597 11.0394 11.3051 11.5351C10.9505 12.0307 10.4605 12.4119 9.89477 12.6324C9.32901 12.8528 8.71183 12.9029 8.11829 12.7767C7.52475 12.6505 6.98042 12.3533 6.55149 11.9213C6.12256 11.4893 5.82751 10.9412 5.70222 10.3435C5.57694 9.74574 5.62681 9.12426 5.84578 8.55456C6.06475 7.98487 6.44338 7.49152 6.93563 7.1345C7.42787 6.77748 8.01253 6.57217 8.6185 6.54355C9.05353 6.52426 9.4878 6.59635 9.89367 6.75521C10.2995 6.91408 10.6681 7.15626 10.976 7.46634C11.2839 7.77643 11.5244 8.14764 11.6821 8.55637C11.8398 8.96511 11.9114 9.40241 11.8921 9.84049Z" fill="#DCDCDC"/>
</svg>
