<svg width="20" height="19" viewBox="0 0 20 19" fill="none" xmlns="http://www.w3.org/2000/svg">
<path d="M1.41956 3.72643C1.21627 3.84295 1.04735 4.01174 0.930056 4.21553C0.812764 4.41933 0.751305 4.65083 0.75196 4.88637V17.2241C0.751222 17.454 0.809643 17.6801 0.921528 17.8805C1.03341 18.0809 1.19494 18.2486 1.39037 18.3674C1.58581 18.4862 1.80847 18.552 2.03665 18.5583C2.26484 18.5647 2.49077 18.5114 2.69241 18.4036C2.71016 18.394 2.7275 18.3841 2.74443 18.3728L6.21825 16.0841C6.26438 16.0539 6.30225 16.0124 6.32843 15.9636C6.3546 15.9148 6.36825 15.8602 6.36812 15.8048V0.945491C6.36828 0.884903 6.35202 0.82542 6.32106 0.773463C6.29011 0.721507 6.24566 0.679051 6.19249 0.650679C6.13933 0.622307 6.07948 0.609097 6.01941 0.612476C5.95934 0.615854 5.90132 0.635693 5.85163 0.669849L1.41956 3.72643ZM8.19833 0.648646C8.14853 0.616049 8.09092 0.597578 8.03158 0.595178C7.97223 0.592777 7.91334 0.606537 7.8611 0.635007C7.80887 0.663478 7.76522 0.705606 7.73476 0.756954C7.70431 0.808302 7.68816 0.866971 7.68803 0.926782V15.7923C7.6879 15.8477 7.70155 15.9024 7.72772 15.9512C7.7539 15.9999 7.79177 16.0414 7.8379 16.0717L11.8014 18.6668C11.8512 18.6995 11.9089 18.7181 11.9683 18.7205C12.0278 18.7229 12.0868 18.7092 12.1391 18.6806C12.1914 18.6521 12.2351 18.6099 12.2655 18.5584C12.296 18.5069 12.3121 18.4481 12.3121 18.3882V3.53228C12.3122 3.47671 12.2986 3.42199 12.2723 3.37311C12.2461 3.32424 12.2081 3.28276 12.1618 3.25248L8.19833 0.648646ZM18.6095 0.946322C18.4148 0.826331 18.1922 0.759811 17.964 0.753392C17.7359 0.746973 17.51 0.800878 17.3089 0.909736C17.2911 0.918939 17.2739 0.929213 17.2573 0.940502L13.7831 3.22712C13.737 3.25741 13.6991 3.29884 13.6729 3.34764C13.6468 3.39643 13.6331 3.45104 13.6332 3.5065V18.3679C13.633 18.4285 13.6493 18.4881 13.6802 18.5401C13.7112 18.5921 13.7557 18.6346 13.809 18.663C13.8622 18.6914 13.9221 18.7046 13.9822 18.7011C14.0424 18.6977 14.1004 18.6778 14.1501 18.6435L18.5707 15.5894C18.7764 15.4738 18.9477 15.3049 19.0668 15.1003C19.186 14.8956 19.2486 14.6625 19.2482 14.4253V2.11915C19.2509 1.88485 19.1935 1.6538 19.0816 1.44834C18.9697 1.24289 18.8071 1.06998 18.6095 0.946322Z" fill="#DCDCDC"/>
</svg>
