<svg width="15" height="19" viewBox="0 0 15 19" fill="none" xmlns="http://www.w3.org/2000/svg">
<path d="M11.8929 5.2907H7.71429V11.496L9.8313 9.36457C9.95283 9.24829 10.1147 9.18443 10.2823 9.18659C10.4499 9.18875 10.6101 9.25677 10.7286 9.37614C10.8472 9.49551 10.9147 9.65679 10.9169 9.8256C10.919 9.9944 10.8556 10.1574 10.7401 10.2798L7.52585 13.5165C7.4053 13.6378 7.24185 13.706 7.07143 13.706C6.90101 13.706 6.73756 13.6378 6.61701 13.5165L3.40272 10.2798C3.28725 10.1574 3.22383 9.9944 3.22598 9.8256C3.22812 9.65679 3.29567 9.49551 3.41421 9.37614C3.53276 9.25677 3.69292 9.18875 3.86055 9.18659C4.02818 9.18443 4.19002 9.24829 4.31156 9.36457L6.42857 11.496V5.2907H2.25C1.65346 5.29134 1.08153 5.53026 0.659715 5.95503C0.237896 6.37979 0.000638126 6.95572 0 7.55643V15.972C0.000638126 16.5727 0.237896 17.1487 0.659715 17.5734C1.08153 17.9982 1.65346 18.2371 2.25 18.2378H11.8929C12.4894 18.2371 13.0613 17.9982 13.4831 17.5734C13.905 17.1487 14.1422 16.5727 14.1429 15.972V7.55643C14.1422 6.95572 13.905 6.37979 13.4831 5.95503C13.0613 5.53026 12.4894 5.29134 11.8929 5.2907ZM7.71429 0.75923C7.71429 0.587541 7.64656 0.422885 7.526 0.301483C7.40544 0.18008 7.24192 0.111877 7.07143 0.111877C6.90093 0.111877 6.73742 0.18008 6.61686 0.301483C6.4963 0.422885 6.42857 0.587541 6.42857 0.75923V5.2907H7.71429V0.75923Z" fill="#DCDCDC"/>
</svg>
