<svg width="40" height="40" viewBox="0 0 40 40" fill="none" xmlns="http://www.w3.org/2000/svg">
<path d="M33.6866 7.35649C30.5064 4.15751 26.3085 2.17018 21.8185 1.73801C21.6819 1.72379 21.5523 1.66989 21.4459 1.58296C21.3395 1.49602 21.2608 1.37986 21.2196 1.24877C21.1374 0.961728 20.964 0.70925 20.7256 0.529515C20.4872 0.349781 20.1967 0.252563 19.8981 0.252563C19.5995 0.252563 19.3091 0.349781 19.0707 0.529515C18.8322 0.70925 18.6588 0.961728 18.5766 1.24877C18.5354 1.37986 18.4568 1.49602 18.3503 1.58296C18.2439 1.66989 18.1144 1.72379 17.9777 1.73801C13.1688 2.21391 8.70795 4.4584 5.45989 8.03636C2.21182 11.6143 0.407955 16.2708 0.398006 21.1032C0.39424 21.341 0.449914 21.576 0.559977 21.7869C0.67004 21.9977 0.831009 22.1778 1.02828 22.3106C1.29602 22.4857 1.61584 22.5632 1.93401 22.5302C2.25217 22.4973 2.5493 22.3558 2.77545 22.1296C3.62165 21.2837 4.76886 20.8081 5.96534 20.8071C7.16182 20.8061 8.30981 21.2798 9.15739 22.1243C9.28547 22.2548 9.43807 22.3587 9.60643 22.43C9.77478 22.5013 9.95556 22.5386 10.1384 22.5398C10.3212 22.541 10.5025 22.5061 10.6718 22.437C10.841 22.368 10.995 22.2661 11.1248 22.1374C12.05 21.2166 13.275 20.6586 14.577 20.5648C15.8789 20.471 17.1712 20.8477 18.2188 21.6264C18.3078 21.6932 18.38 21.7799 18.4297 21.8794C18.4794 21.979 18.5053 22.0888 18.5053 22.2001V35.0336C18.5053 35.7823 17.9307 36.4265 17.1829 36.4648C16.9943 36.4743 16.8057 36.4454 16.6286 36.3798C16.4515 36.3142 16.2896 36.2133 16.1527 36.0832C16.0158 35.9531 15.9069 35.7965 15.8324 35.6229C15.7579 35.4494 15.7195 35.2625 15.7195 35.0736C15.7196 34.8886 15.6827 34.7054 15.6111 34.5347C15.5396 34.3641 15.4347 34.2094 15.3027 34.0797C15.1707 33.95 15.0141 33.848 14.8422 33.7795C14.6703 33.711 14.4864 33.6774 14.3014 33.6808C13.5179 33.6947 12.9173 34.3868 12.9347 35.1694C12.9607 36.2511 13.4047 37.2807 14.1737 38.0419C14.9426 38.8032 15.9765 39.237 17.0584 39.2522C19.3984 39.2818 21.291 37.3431 21.291 35.0031V22.2001C21.291 22.0888 21.3168 21.979 21.3665 21.8794C21.4162 21.7799 21.4884 21.6932 21.5774 21.6264C22.6235 20.8488 23.9136 20.472 25.2138 20.5644C26.5139 20.6567 27.7379 21.212 28.6636 22.1296C28.9248 22.3906 29.2789 22.5372 29.6482 22.5372C30.0174 22.5372 30.3716 22.3906 30.6328 22.1296C31.4801 21.2829 32.6289 20.8074 33.8268 20.8074C35.0246 20.8074 36.1734 21.2829 37.0208 22.1296C37.2404 22.3491 37.527 22.4891 37.8352 22.5271C38.1434 22.5651 38.4555 22.499 38.7218 22.3394C38.932 22.2093 39.1048 22.027 39.2234 21.8102C39.3419 21.5933 39.4022 21.3494 39.3982 21.1023C39.3995 18.5477 38.8955 16.018 37.9153 13.659C36.9351 11.2999 35.4979 9.15795 33.6866 7.35649Z" fill="#5AB9E0"/>
</svg>
