<svg width="21" height="21" viewBox="0 0 21 21" fill="none" xmlns="http://www.w3.org/2000/svg">
<path d="M10.4812 11.2308V18.5385C10.4812 18.9261 10.3272 19.2978 10.0531 19.5719C9.77904 19.846 9.40729 20 9.01966 20C8.63204 20 8.26029 19.846 7.9862 19.5719C7.71211 19.2978 7.55812 18.9261 7.55812 18.5385M10.4812 11.2308L10.0386 10.8987C9.35017 10.3825 8.49862 10.1318 7.64027 10.1928C6.78191 10.2538 5.97435 10.6224 5.36582 11.2308C5.07793 10.9429 4.73614 10.7145 4.35999 10.5587C3.98383 10.4028 3.58066 10.3226 3.17351 10.3226C2.76636 10.3226 2.36319 10.4028 1.98703 10.5587C1.61087 10.7145 1.26909 10.9429 0.981201 11.2308C0.981201 5.98385 5.23428 1.73077 10.4812 1.73077M10.4812 11.2308L10.9238 10.8987C11.6122 10.3825 12.4638 10.1318 13.3221 10.1928C14.1805 10.2538 14.988 10.6224 15.5966 11.2308C15.8845 10.9429 16.2263 10.7145 16.6024 10.5587C16.9786 10.4028 17.3817 10.3226 17.7889 10.3226C18.196 10.3226 18.5992 10.4028 18.9754 10.5587C19.3515 10.7145 19.6933 10.9429 19.9812 11.2308C19.9812 5.98385 15.7281 1.73077 10.4812 1.73077M10.4812 1.73077V1" stroke="white" stroke-width="1.46154" stroke-linecap="round" stroke-linejoin="round"/>
</svg>
