<svg width="16" height="14" viewBox="0 0 16 14" fill="none" xmlns="http://www.w3.org/2000/svg">
<path d="M0.138916 13.7251V12.1488C0.518943 12.1488 0.843146 12.0881 1.11152 11.9669C1.38043 11.8456 1.65247 11.7144 1.92766 11.5732C2.20286 11.4314 2.50766 11.3032 2.84209 11.1884C3.17599 11.0741 3.58537 11.017 4.07023 11.017C4.5682 11.017 4.97758 11.0741 5.29838 11.1884C5.61969 11.3032 5.91795 11.4314 6.19314 11.5732C6.46833 11.7144 6.74353 11.8456 7.01872 11.9669C7.29391 12.0881 7.62152 12.1488 8.00155 12.1488C8.38157 12.1488 8.70918 12.0881 8.98438 11.9669C9.25957 11.8456 9.53476 11.7144 9.80995 11.5732C10.0851 11.4314 10.3865 11.3032 10.7142 11.1884C11.0418 11.0741 11.448 11.017 11.9329 11.017C12.4308 11.017 12.8436 11.0741 13.1712 11.1884C13.4988 11.3032 13.8002 11.4314 14.0754 11.5732C14.3506 11.7144 14.6258 11.8456 14.901 11.9669C15.1762 12.0881 15.4973 12.1488 15.8642 12.1488V13.7251C15.3662 13.7251 14.9503 13.6645 14.6164 13.5432C14.282 13.422 13.9771 13.2905 13.702 13.1487C13.4268 13.0075 13.1581 12.8798 12.896 12.7655C12.6339 12.6508 12.3129 12.5934 11.9329 12.5934C11.5659 12.5934 11.2483 12.6508 10.9799 12.7655C10.711 12.8798 10.4421 13.0075 10.1732 13.1487C9.90483 13.2905 9.60369 13.422 9.26979 13.5432C8.93537 13.6645 8.51262 13.7251 8.00155 13.7251C7.49048 13.7251 7.06773 13.6645 6.7333 13.5432C6.39941 13.422 6.09827 13.2905 5.82989 13.1487C5.56099 13.0075 5.29549 12.8798 5.0334 12.7655C4.77132 12.6508 4.45026 12.5934 4.07023 12.5934C3.70331 12.5934 3.38566 12.6508 3.11728 12.7655C2.84838 12.8798 2.57633 13.0075 2.30114 13.1487C2.02595 13.2905 1.7214 13.422 1.3875 13.5432C1.05308 13.6645 0.636883 13.7251 0.138916 13.7251ZM0.138916 10.1278V8.55144C0.518943 8.55144 0.843146 8.49082 1.11152 8.36956C1.38043 8.2483 1.65247 8.11707 1.92766 7.97587C2.20286 7.83414 2.50766 7.70588 2.84209 7.59109C3.17599 7.47683 3.58537 7.41971 4.07023 7.41971C4.5682 7.41971 4.97758 7.47683 5.29838 7.59109C5.61969 7.70588 5.91795 7.83414 6.19314 7.97587C6.46833 8.11707 6.74353 8.2483 7.01872 8.36956C7.29391 8.49082 7.62152 8.55144 8.00155 8.55144C8.38157 8.55144 8.70918 8.49082 8.98438 8.36956C9.25957 8.2483 9.53476 8.11707 9.80995 7.97587C10.0851 7.83414 10.3865 7.70588 10.7142 7.59109C11.0418 7.47683 11.448 7.41971 11.9329 7.41971C12.4308 7.41971 12.8436 7.47683 13.1712 7.59109C13.4988 7.70588 13.8002 7.83414 14.0754 7.97587C14.3506 8.11707 14.6258 8.2483 14.901 8.36956C15.1762 8.49082 15.4973 8.55144 15.8642 8.55144V10.1278C15.3662 10.1278 14.9503 10.0672 14.6164 9.94591C14.282 9.82465 13.9771 9.69342 13.702 9.55222C13.4268 9.41049 13.1581 9.28222 12.896 9.16743C12.6339 9.05318 12.3129 8.99606 11.9329 8.99606C11.5528 8.99606 11.2286 9.05318 10.9603 9.16743C10.6914 9.28222 10.4227 9.41049 10.1543 9.55222C9.88543 9.69342 9.58718 9.82465 9.25957 9.94591C8.93196 10.0672 8.51262 10.1278 8.00155 10.1278C7.49048 10.1278 7.06773 10.0672 6.7333 9.94591C6.39941 9.82465 6.09827 9.69342 5.82989 9.55222C5.56099 9.41049 5.29549 9.28222 5.0334 9.16743C4.77132 9.05318 4.45026 8.99606 4.07023 8.99606C3.70331 8.99606 3.38566 9.05318 3.11728 9.16743C2.84838 9.28222 2.57633 9.41049 2.30114 9.55222C2.02595 9.69342 1.7214 9.82465 1.3875 9.94591C1.05308 10.0672 0.636883 10.1278 0.138916 10.1278ZM0.138916 6.53049V4.95414C0.518943 4.95414 0.843146 4.89351 1.11152 4.77225C1.38043 4.651 1.65247 4.5195 1.92766 4.37776C2.20286 4.23656 2.50766 4.10857 2.84209 3.99378C3.17599 3.87953 3.58537 3.8224 4.07023 3.8224C4.5682 3.8224 4.97758 3.87953 5.29838 3.99378C5.61969 4.10857 5.91795 4.23656 6.19314 4.37776C6.46833 4.5195 6.74353 4.651 7.01872 4.77225C7.29391 4.89351 7.62152 4.95414 8.00155 4.95414C8.38157 4.95414 8.70918 4.89351 8.98438 4.77225C9.25957 4.651 9.53476 4.5195 9.80995 4.37776C10.0851 4.23656 10.3865 4.10857 10.7142 3.99378C11.0418 3.87953 11.448 3.8224 11.9329 3.8224C12.4308 3.8224 12.8436 3.87953 13.1712 3.99378C13.4988 4.10857 13.8002 4.23656 14.0754 4.37776C14.3506 4.5195 14.6258 4.651 14.901 4.77225C15.1762 4.89351 15.4973 4.95414 15.8642 4.95414V6.53049C15.3662 6.53049 14.9503 6.46986 14.6164 6.3486C14.282 6.22734 13.9771 6.09612 13.702 5.95492C13.4268 5.81318 13.1581 5.68492 12.896 5.57013C12.6339 5.45588 12.3129 5.39875 11.9329 5.39875C11.5659 5.39875 11.2483 5.45588 10.9799 5.57013C10.711 5.68492 10.4421 5.81318 10.1732 5.95492C9.90483 6.09612 9.60369 6.22734 9.26979 6.3486C8.93537 6.46986 8.51262 6.53049 8.00155 6.53049C7.49048 6.53049 7.06773 6.46986 6.7333 6.3486C6.39941 6.22734 6.09827 6.09612 5.82989 5.95492C5.56099 5.81318 5.29549 5.68492 5.0334 5.57013C4.77132 5.45588 4.45026 5.39875 4.07023 5.39875C3.70331 5.39875 3.38566 5.45588 3.11728 5.57013C2.84838 5.68492 2.57633 5.81318 2.30114 5.95492C2.02595 6.09612 1.7214 6.22734 1.3875 6.3486C1.05308 6.46986 0.636883 6.53049 0.138916 6.53049ZM0.138916 2.93318V1.35683C0.518943 1.35683 0.843146 1.29621 1.11152 1.17495C1.38043 1.05369 1.65247 0.922193 1.92766 0.780457C2.20286 0.639259 2.50766 0.511265 2.84209 0.396475C3.17599 0.282223 3.58537 0.225098 4.07023 0.225098C4.5682 0.225098 4.97758 0.282223 5.29838 0.396475C5.61969 0.511265 5.91795 0.639259 6.19314 0.780457C6.46833 0.922193 6.74353 1.05369 7.01872 1.17495C7.29391 1.29621 7.62152 1.35683 8.00155 1.35683C8.38157 1.35683 8.70918 1.29621 8.98438 1.17495C9.25957 1.05369 9.53476 0.922193 9.80995 0.780457C10.0851 0.639259 10.3865 0.511265 10.7142 0.396475C11.0418 0.282223 11.448 0.225098 11.9329 0.225098C12.4308 0.225098 12.8436 0.282223 13.1712 0.396475C13.4988 0.511265 13.8002 0.639259 14.0754 0.780457C14.3506 0.922193 14.6258 1.05369 14.901 1.17495C15.1762 1.29621 15.4973 1.35683 15.8642 1.35683V2.93318C15.3662 2.93318 14.9503 2.87255 14.6164 2.7513C14.282 2.63004 13.9771 2.49854 13.702 2.3568C13.4268 2.21561 13.1581 2.08761 12.896 1.97282C12.6339 1.85857 12.3129 1.80144 11.9329 1.80144C11.5659 1.80144 11.2483 1.85857 10.9799 1.97282C10.711 2.08761 10.4421 2.21561 10.1732 2.3568C9.90483 2.49854 9.60369 2.63004 9.26979 2.7513C8.93537 2.87255 8.51262 2.93318 8.00155 2.93318C7.49048 2.93318 7.06773 2.87255 6.7333 2.7513C6.39941 2.63004 6.09827 2.49854 5.82989 2.3568C5.56099 2.21561 5.29549 2.08761 5.0334 1.97282C4.77132 1.85857 4.45026 1.80144 4.07023 1.80144C3.70331 1.80144 3.38566 1.85857 3.11728 1.97282C2.84838 2.08761 2.57633 2.21561 2.30114 2.3568C2.02595 2.49854 1.7214 2.63004 1.3875 2.7513C1.05308 2.87255 0.636883 2.93318 0.138916 2.93318Z" fill="white"/>
</svg>
