<svg width="23" height="19" viewBox="0 0 23 19" fill="none" xmlns="http://www.w3.org/2000/svg">
<path d="M0.981201 18.5V16.3982C1.50216 16.3982 1.94659 16.3174 2.31449 16.1557C2.68312 15.994 3.05605 15.819 3.4333 15.6308C3.81054 15.4418 4.22839 15.2708 4.68683 15.1177C5.14455 14.9654 5.70575 14.8892 6.37042 14.8892C7.05306 14.8892 7.61425 14.9654 8.05401 15.1177C8.49449 15.2708 8.90336 15.4418 9.2806 15.6308C9.65785 15.819 10.0351 15.994 10.4123 16.1557C10.7896 16.3174 11.2387 16.3982 11.7596 16.3982C12.2806 16.3982 12.7297 16.3174 13.1069 16.1557C13.4842 15.994 13.8614 15.819 14.2387 15.6308C14.6159 15.4418 15.0291 15.2708 15.4782 15.1177C15.9273 14.9654 16.4842 14.8892 17.1489 14.8892C17.8315 14.8892 18.3974 14.9654 18.8465 15.1177C19.2956 15.2708 19.7087 15.4418 20.086 15.6308C20.4632 15.819 20.8405 15.994 21.2177 16.1557C21.595 16.3174 22.0351 16.3982 22.5381 16.3982V18.5C21.8554 18.5 21.2853 18.4192 20.8275 18.2575C20.3691 18.0958 19.9513 17.9205 19.574 17.7315C19.1968 17.5432 18.8285 17.3729 18.4692 17.2206C18.1099 17.0675 17.6698 16.991 17.1489 16.991C16.6459 16.991 16.2104 17.0675 15.8425 17.2206C15.4739 17.3729 15.1053 17.5432 14.7366 17.7315C14.3687 17.9205 13.9559 18.0958 13.4982 18.2575C13.0398 18.4192 12.4602 18.5 11.7596 18.5C11.059 18.5 10.4795 18.4192 10.0211 18.2575C9.56336 18.0958 9.15054 17.9205 8.78264 17.7315C8.41401 17.5432 8.05006 17.3729 7.69078 17.2206C7.3315 17.0675 6.89138 16.991 6.37042 16.991C5.86743 16.991 5.43198 17.0675 5.06407 17.2206C4.69545 17.3729 4.32252 17.5432 3.94527 17.7315C3.56803 17.9205 3.15054 18.0958 2.69282 18.2575C2.23437 18.4192 1.66384 18.5 0.981201 18.5ZM0.981201 13.7036V11.6018C1.50216 11.6018 1.94659 11.521 2.31449 11.3593C2.68312 11.1976 3.05605 11.0226 3.4333 10.8344C3.81054 10.6454 4.22839 10.4744 4.68683 10.3213C5.14455 10.169 5.70575 10.0928 6.37042 10.0928C7.05306 10.0928 7.61425 10.169 8.05401 10.3213C8.49449 10.4744 8.90336 10.6454 9.2806 10.8344C9.65785 11.0226 10.0351 11.1976 10.4123 11.3593C10.7896 11.521 11.2387 11.6018 11.7596 11.6018C12.2806 11.6018 12.7297 11.521 13.1069 11.3593C13.4842 11.1976 13.8614 11.0226 14.2387 10.8344C14.6159 10.6454 15.0291 10.4744 15.4782 10.3213C15.9273 10.169 16.4842 10.0928 17.1489 10.0928C17.8315 10.0928 18.3974 10.169 18.8465 10.3213C19.2956 10.4744 19.7087 10.6454 20.086 10.8344C20.4632 11.0226 20.8405 11.1976 21.2177 11.3593C21.595 11.521 22.0351 11.6018 22.5381 11.6018V13.7036C21.8554 13.7036 21.2853 13.6228 20.8275 13.4611C20.3691 13.2994 19.9513 13.1244 19.574 12.9362C19.1968 12.7472 18.8285 12.5762 18.4692 12.4231C18.1099 12.2708 17.6698 12.1946 17.1489 12.1946C16.6279 12.1946 16.1835 12.2708 15.8156 12.4231C15.4469 12.5762 15.0787 12.7472 14.7108 12.9362C14.3422 13.1244 13.9333 13.2994 13.4842 13.4611C13.0351 13.6228 12.4602 13.7036 11.7596 13.7036C11.059 13.7036 10.4795 13.6228 10.0211 13.4611C9.56336 13.2994 9.15054 13.1244 8.78264 12.9362C8.41401 12.7472 8.05006 12.5762 7.69078 12.4231C7.3315 12.2708 6.89138 12.1946 6.37042 12.1946C5.86743 12.1946 5.43198 12.2708 5.06407 12.4231C4.69545 12.5762 4.32252 12.7472 3.94527 12.9362C3.56803 13.1244 3.15054 13.2994 2.69282 13.4611C2.23437 13.6228 1.66384 13.7036 0.981201 13.7036ZM0.981201 8.90718V6.80539C1.50216 6.80539 1.94659 6.72455 2.31449 6.56287C2.68312 6.4012 3.05605 6.22587 3.4333 6.03689C3.81054 5.84862 4.22839 5.67796 4.68683 5.52491C5.14455 5.37257 5.70575 5.29641 6.37042 5.29641C7.05306 5.29641 7.61425 5.37257 8.05401 5.52491C8.49449 5.67796 8.90336 5.84862 9.2806 6.03689C9.65785 6.22587 10.0351 6.4012 10.4123 6.56287C10.7896 6.72455 11.2387 6.80539 11.7596 6.80539C12.2806 6.80539 12.7297 6.72455 13.1069 6.56287C13.4842 6.4012 13.8614 6.22587 14.2387 6.03689C14.6159 5.84862 15.0291 5.67796 15.4782 5.52491C15.9273 5.37257 16.4842 5.29641 17.1489 5.29641C17.8315 5.29641 18.3974 5.37257 18.8465 5.52491C19.2956 5.67796 19.7087 5.84862 20.086 6.03689C20.4632 6.22587 20.8405 6.4012 21.2177 6.56287C21.595 6.72455 22.0351 6.80539 22.5381 6.80539V8.90718C21.8554 8.90718 21.2853 8.82635 20.8275 8.66467C20.3691 8.50299 19.9513 8.32802 19.574 8.13976C19.1968 7.95078 18.8285 7.77976 18.4692 7.62671C18.1099 7.47437 17.6698 7.3982 17.1489 7.3982C16.6459 7.3982 16.2104 7.47437 15.8425 7.62671C15.4739 7.77976 15.1053 7.95078 14.7366 8.13976C14.3687 8.32802 13.9559 8.50299 13.4982 8.66467C13.0398 8.82635 12.4602 8.90718 11.7596 8.90718C11.059 8.90718 10.4795 8.82635 10.0211 8.66467C9.56336 8.50299 9.15054 8.32802 8.78264 8.13976C8.41401 7.95078 8.05006 7.77976 7.69078 7.62671C7.3315 7.47437 6.89138 7.3982 6.37042 7.3982C5.86743 7.3982 5.43198 7.47437 5.06407 7.62671C4.69545 7.77976 4.32252 7.95078 3.94527 8.13976C3.56803 8.32802 3.15054 8.50299 2.69282 8.66467C2.23437 8.82635 1.66384 8.90718 0.981201 8.90718ZM0.981201 4.11078V2.00898C1.50216 2.00898 1.94659 1.92814 2.31449 1.76647C2.68312 1.60479 3.05605 1.42946 3.4333 1.24048C3.81054 1.05222 4.22839 0.881557 4.68683 0.728503C5.14455 0.576168 5.70575 0.5 6.37042 0.5C7.05306 0.5 7.61425 0.576168 8.05401 0.728503C8.49449 0.881557 8.90336 1.05222 9.2806 1.24048C9.65785 1.42946 10.0351 1.60479 10.4123 1.76647C10.7896 1.92814 11.2387 2.00898 11.7596 2.00898C12.2806 2.00898 12.7297 1.92814 13.1069 1.76647C13.4842 1.60479 13.8614 1.42946 14.2387 1.24048C14.6159 1.05222 15.0291 0.881557 15.4782 0.728503C15.9273 0.576168 16.4842 0.5 17.1489 0.5C17.8315 0.5 18.3974 0.576168 18.8465 0.728503C19.2956 0.881557 19.7087 1.05222 20.086 1.24048C20.4632 1.42946 20.8405 1.60479 21.2177 1.76647C21.595 1.92814 22.0351 2.00898 22.5381 2.00898V4.11078C21.8554 4.11078 21.2853 4.02994 20.8275 3.86826C20.3691 3.70659 19.9513 3.53126 19.574 3.34228C19.1968 3.15401 18.8285 2.98335 18.4692 2.8303C18.1099 2.67796 17.6698 2.6018 17.1489 2.6018C16.6459 2.6018 16.2104 2.67796 15.8425 2.8303C15.4739 2.98335 15.1053 3.15401 14.7366 3.34228C14.3687 3.53126 13.9559 3.70659 13.4982 3.86826C13.0398 4.02994 12.4602 4.11078 11.7596 4.11078C11.059 4.11078 10.4795 4.02994 10.0211 3.86826C9.56336 3.70659 9.15054 3.53126 8.78264 3.34228C8.41401 3.15401 8.05006 2.98335 7.69078 2.8303C7.3315 2.67796 6.89138 2.6018 6.37042 2.6018C5.86743 2.6018 5.43198 2.67796 5.06407 2.8303C4.69545 2.98335 4.32252 3.15401 3.94527 3.34228C3.56803 3.53126 3.15054 3.70659 2.69282 3.86826C2.23437 4.02994 1.66384 4.11078 0.981201 4.11078Z" fill="white"/>
</svg>
