<svg width="22" height="19" viewBox="0 0 22 19" fill="none" xmlns="http://www.w3.org/2000/svg">
<path d="M0.0187988 18.5V16.3982C0.539757 16.3982 0.984188 16.3174 1.35209 16.1557C1.72071 15.994 2.09365 15.819 2.47089 15.6308C2.84814 15.4418 3.26598 15.2708 3.72443 15.1177C4.18215 14.9654 4.74335 14.8892 5.40802 14.8892C6.09065 14.8892 6.65185 14.9654 7.09161 15.1177C7.53209 15.2708 7.94095 15.4418 8.3182 15.6308C8.69544 15.819 9.07269 15.994 9.44993 16.1557C9.82718 16.3174 10.2763 16.3982 10.7972 16.3982C11.3182 16.3982 11.7673 16.3174 12.1445 16.1557C12.5218 15.994 12.899 15.819 13.2763 15.6308C13.6535 15.4418 14.0667 15.2708 14.5158 15.1177C14.9649 14.9654 15.5218 14.8892 16.1865 14.8892C16.8691 14.8892 17.435 14.9654 17.8841 15.1177C18.3332 15.2708 18.7463 15.4418 19.1236 15.6308C19.5008 15.819 19.8781 15.994 20.2553 16.1557C20.6326 16.3174 21.0727 16.3982 21.5757 16.3982V18.5C20.893 18.5 20.3229 18.4192 19.8651 18.2575C19.4067 18.0958 18.9889 17.9205 18.6116 17.7315C18.2344 17.5432 17.8661 17.3729 17.5068 17.2206C17.1475 17.0675 16.7074 16.991 16.1865 16.991C15.6835 16.991 15.248 17.0675 14.8801 17.2206C14.5115 17.3729 14.1429 17.5432 13.7742 17.7315C13.4063 17.9205 12.9935 18.0958 12.5358 18.2575C12.0774 18.4192 11.4978 18.5 10.7972 18.5C10.0966 18.5 9.51712 18.4192 9.05868 18.2575C8.60095 18.0958 8.18814 17.9205 7.82023 17.7315C7.45161 17.5432 7.08766 17.3729 6.72838 17.2206C6.3691 17.0675 5.92898 16.991 5.40802 16.991C4.90503 16.991 4.46958 17.0675 4.10167 17.2206C3.73305 17.3729 3.36012 17.5432 2.98287 17.7315C2.60562 17.9205 2.18814 18.0958 1.73042 18.2575C1.27197 18.4192 0.701433 18.5 0.0187988 18.5ZM0.0187988 13.7036V11.6018C0.539757 11.6018 0.984188 11.521 1.35209 11.3593C1.72071 11.1976 2.09365 11.0226 2.47089 10.8344C2.84814 10.6454 3.26598 10.4744 3.72443 10.3213C4.18215 10.169 4.74335 10.0928 5.40802 10.0928C6.09065 10.0928 6.65185 10.169 7.09161 10.3213C7.53209 10.4744 7.94095 10.6454 8.3182 10.8344C8.69544 11.0226 9.07269 11.1976 9.44993 11.3593C9.82718 11.521 10.2763 11.6018 10.7972 11.6018C11.3182 11.6018 11.7673 11.521 12.1445 11.3593C12.5218 11.1976 12.899 11.0226 13.2763 10.8344C13.6535 10.6454 14.0667 10.4744 14.5158 10.3213C14.9649 10.169 15.5218 10.0928 16.1865 10.0928C16.8691 10.0928 17.435 10.169 17.8841 10.3213C18.3332 10.4744 18.7463 10.6454 19.1236 10.8344C19.5008 11.0226 19.8781 11.1976 20.2553 11.3593C20.6326 11.521 21.0727 11.6018 21.5757 11.6018V13.7036C20.893 13.7036 20.3229 13.6228 19.8651 13.4611C19.4067 13.2994 18.9889 13.1244 18.6116 12.9362C18.2344 12.7472 17.8661 12.5762 17.5068 12.4231C17.1475 12.2708 16.7074 12.1946 16.1865 12.1946C15.6655 12.1946 15.2211 12.2708 14.8532 12.4231C14.4845 12.5762 14.1163 12.7472 13.7484 12.9362C13.3798 13.1244 12.9709 13.2994 12.5218 13.4611C12.0727 13.6228 11.4978 13.7036 10.7972 13.7036C10.0966 13.7036 9.51712 13.6228 9.05868 13.4611C8.60095 13.2994 8.18814 13.1244 7.82023 12.9362C7.45161 12.7472 7.08766 12.5762 6.72838 12.4231C6.3691 12.2708 5.92898 12.1946 5.40802 12.1946C4.90503 12.1946 4.46958 12.2708 4.10167 12.4231C3.73305 12.5762 3.36012 12.7472 2.98287 12.9362C2.60562 13.1244 2.18814 13.2994 1.73042 13.4611C1.27197 13.6228 0.701433 13.7036 0.0187988 13.7036ZM0.0187988 8.90718V6.80539C0.539757 6.80539 0.984188 6.72455 1.35209 6.56287C1.72071 6.4012 2.09365 6.22587 2.47089 6.03689C2.84814 5.84862 3.26598 5.67796 3.72443 5.52491C4.18215 5.37257 4.74335 5.29641 5.40802 5.29641C6.09065 5.29641 6.65185 5.37257 7.09161 5.52491C7.53209 5.67796 7.94095 5.84862 8.3182 6.03689C8.69544 6.22587 9.07269 6.4012 9.44993 6.56287C9.82718 6.72455 10.2763 6.80539 10.7972 6.80539C11.3182 6.80539 11.7673 6.72455 12.1445 6.56287C12.5218 6.4012 12.899 6.22587 13.2763 6.03689C13.6535 5.84862 14.0667 5.67796 14.5158 5.52491C14.9649 5.37257 15.5218 5.29641 16.1865 5.29641C16.8691 5.29641 17.435 5.37257 17.8841 5.52491C18.3332 5.67796 18.7463 5.84862 19.1236 6.03689C19.5008 6.22587 19.8781 6.4012 20.2553 6.56287C20.6326 6.72455 21.0727 6.80539 21.5757 6.80539V8.90718C20.893 8.90718 20.3229 8.82635 19.8651 8.66467C19.4067 8.50299 18.9889 8.32802 18.6116 8.13976C18.2344 7.95078 17.8661 7.77976 17.5068 7.62671C17.1475 7.47437 16.7074 7.3982 16.1865 7.3982C15.6835 7.3982 15.248 7.47437 14.8801 7.62671C14.5115 7.77976 14.1429 7.95078 13.7742 8.13976C13.4063 8.32802 12.9935 8.50299 12.5358 8.66467C12.0774 8.82635 11.4978 8.90718 10.7972 8.90718C10.0966 8.90718 9.51712 8.82635 9.05868 8.66467C8.60095 8.50299 8.18814 8.32802 7.82023 8.13976C7.45161 7.95078 7.08766 7.77976 6.72838 7.62671C6.3691 7.47437 5.92898 7.3982 5.40802 7.3982C4.90503 7.3982 4.46958 7.47437 4.10167 7.62671C3.73305 7.77976 3.36012 7.95078 2.98287 8.13976C2.60562 8.32802 2.18814 8.50299 1.73042 8.66467C1.27197 8.82635 0.701433 8.90718 0.0187988 8.90718ZM0.0187988 4.11078V2.00898C0.539757 2.00898 0.984188 1.92814 1.35209 1.76647C1.72071 1.60479 2.09365 1.42946 2.47089 1.24048C2.84814 1.05222 3.26598 0.881557 3.72443 0.728503C4.18215 0.576168 4.74335 0.5 5.40802 0.5C6.09065 0.5 6.65185 0.576168 7.09161 0.728503C7.53209 0.881557 7.94095 1.05222 8.3182 1.24048C8.69544 1.42946 9.07269 1.60479 9.44993 1.76647C9.82718 1.92814 10.2763 2.00898 10.7972 2.00898C11.3182 2.00898 11.7673 1.92814 12.1445 1.76647C12.5218 1.60479 12.899 1.42946 13.2763 1.24048C13.6535 1.05222 14.0667 0.881557 14.5158 0.728503C14.9649 0.576168 15.5218 0.5 16.1865 0.5C16.8691 0.5 17.435 0.576168 17.8841 0.728503C18.3332 0.881557 18.7463 1.05222 19.1236 1.24048C19.5008 1.42946 19.8781 1.60479 20.2553 1.76647C20.6326 1.92814 21.0727 2.00898 21.5757 2.00898V4.11078C20.893 4.11078 20.3229 4.02994 19.8651 3.86826C19.4067 3.70659 18.9889 3.53126 18.6116 3.34228C18.2344 3.15401 17.8661 2.98335 17.5068 2.8303C17.1475 2.67796 16.7074 2.6018 16.1865 2.6018C15.6835 2.6018 15.248 2.67796 14.8801 2.8303C14.5115 2.98335 14.1429 3.15401 13.7742 3.34228C13.4063 3.53126 12.9935 3.70659 12.5358 3.86826C12.0774 4.02994 11.4978 4.11078 10.7972 4.11078C10.0966 4.11078 9.51712 4.02994 9.05868 3.86826C8.60095 3.70659 8.18814 3.53126 7.82023 3.34228C7.45161 3.15401 7.08766 2.98335 6.72838 2.8303C6.3691 2.67796 5.92898 2.6018 5.40802 2.6018C4.90503 2.6018 4.46958 2.67796 4.10167 2.8303C3.73305 2.98335 3.36012 3.15401 2.98287 3.34228C2.60562 3.53126 2.18814 3.70659 1.73042 3.86826C1.27197 4.02994 0.701433 4.11078 0.0187988 4.11078Z" fill="white"/>
</svg>
